<svg width="347" height="111" viewBox="0 0 347 111" fill="none" xmlns="http://www.w3.org/2000/svg">
<path d="M333.003 45.4817C333.334 41.6227 333.582 37.8555 333.748 34.0883C333.914 32.1588 333.997 30.3212 334.079 28.3916C334.162 27.289 334.162 26.1865 334.162 25.1757L340.788 29.2186L342.527 30.3212L346.005 32.3426L346.088 32.2507C345.012 31.3319 344.018 30.413 343.024 29.4942C342.527 29.0348 341.947 28.5754 341.45 28.2079L339.96 26.8296C338.22 25.3595 336.564 23.8894 334.825 22.5112C335.404 21.868 335.984 21.2248 336.564 20.4898L339.049 17.182C340.705 14.9768 342.444 12.7716 344.101 10.4746H344.018C341.947 12.2203 339.96 14.1499 337.972 15.9875C336.978 16.9063 335.984 17.8252 334.99 18.8359L334.162 19.6628C334.079 16.9063 333.914 14.1499 333.748 11.3015L333.582 8.54506C333.5 7.53435 333.5 6.61553 333.417 5.6967C333.334 3.76718 333.168 1.83765 333.003 0H332.92C332.837 1.83765 332.671 3.76718 332.589 5.6967C332.506 6.61553 332.423 7.53435 332.423 8.54506L332.257 11.3015C332.092 14.3336 331.926 17.2739 331.843 20.306L330.352 19.2953L326.874 17.182C324.638 15.8038 322.319 14.4255 320 13.1392C321.988 14.9768 323.975 16.8145 326.046 18.6521C327.122 19.479 328.116 20.3979 329.11 21.3167C329.773 21.868 330.435 22.4193 331.098 22.8787C329.69 24.6245 328.365 26.4621 326.957 28.2997L325.632 29.9536L321.905 34.9153L321.988 35.0072L324.969 32.2507L326.543 30.8725L328.034 29.4023L331.843 25.8189C331.843 26.6459 331.843 27.5647 331.926 28.3916C332.009 30.3212 332.092 32.1588 332.257 34.0883C332.423 37.8555 332.671 41.6227 333.003 45.4817Z" fill="#D04D2A"/>
<path d="M10.0851 110.797C10.342 108.099 10.5347 105.465 10.6632 102.832C10.7917 101.483 10.8559 100.198 10.9202 98.849C10.9844 98.0782 10.9844 97.3073 10.9844 96.6007L16.1233 99.4271L17.4722 100.198L20.1702 101.611L20.2344 101.547C19.3993 100.905 18.6285 100.262 17.8577 99.6198C17.4722 99.2986 17.0226 98.9775 16.6372 98.7205L15.4809 97.757C14.132 96.7292 12.8472 95.7014 11.4983 94.7379C11.9479 94.2882 12.3976 93.8386 12.8472 93.3247L14.7743 91.0122C16.059 89.4705 17.408 87.9288 18.6927 86.3229H18.6285C17.0226 87.5434 15.4809 88.8924 13.9393 90.1771C13.1684 90.8195 12.3976 91.4618 11.6268 92.1684L10.9844 92.7465C10.9202 90.8195 10.7917 88.8924 10.6632 86.9011L10.5347 84.974C10.4705 84.2674 10.4705 83.625 10.4063 82.9826C10.342 81.6337 10.2136 80.2847 10.0851 79H10.0208C9.95661 80.2847 9.82814 81.6337 9.7639 82.9826C9.69967 83.625 9.63543 84.2674 9.63543 84.974L9.50696 86.9011C9.37849 89.0208 9.25001 91.0764 9.18578 93.1962L8.02952 92.4896L5.33161 91.0122C3.59723 90.0486 1.79861 89.0851 0 88.1858C1.54167 89.4705 3.08334 90.7552 4.68924 92.04C5.52431 92.6181 6.29515 93.2604 7.06598 93.9028C7.57987 94.2882 8.09376 94.6736 8.60765 94.9948C7.51564 96.2153 6.48786 97.5 5.39584 98.7848L4.36806 99.941L1.47743 103.41L1.54167 103.474L3.85417 101.547L5.07466 100.583L6.23091 99.5556L9.18578 97.0504C9.18578 97.6285 9.18578 98.2709 9.25001 98.849C9.31425 100.198 9.37849 101.483 9.50696 102.832C9.63543 105.465 9.82814 108.099 10.0851 110.797Z" fill="#D04D2A"/>
<path d="M79.6 16.104V14.056H74.848V16.728H76.528V15.464H78.432V19.816H76.528V18.552H74.848V20.968H79.6V18.92H81.856V23H70.528V20.968H72.304V14.056H70.528V12.024H81.856V16.104H79.6ZM90.8609 17.304L94.3969 20.968H95.5009V23H89.7729V21.192H91.1649L89.0209 18.792L86.8129 21.192H88.2529V23H83.0049V20.968H84.3009L87.5809 17.56L84.1089 14.056H83.0049V12.024H88.7009V13.832H87.3089L89.4369 16.072L91.5809 13.832H90.2049V12.024H95.5009V14.056H94.0609L90.8609 17.304ZM102.679 12.024C103.554 12.024 104.322 12.1733 104.983 12.472C105.655 12.76 106.172 13.176 106.535 13.72C106.908 14.2533 107.095 14.872 107.095 15.576C107.095 16.312 106.914 16.9627 106.551 17.528C106.199 18.0827 105.687 18.5147 105.015 18.824C104.354 19.1333 103.586 19.288 102.711 19.288H100.567V20.968H102.535V23H96.2311V20.968H98.0231V14.056H96.2311V12.024H102.679ZM102.567 17.256C103.879 17.256 104.535 16.6853 104.535 15.544C104.535 15 104.338 14.616 103.943 14.392C103.548 14.168 103.068 14.056 102.503 14.056H100.567V17.24L102.567 17.256ZM118.7 18.392V23H108.044V20.968H109.836V14.056H108.044V12.024H114.188V14.056H112.412V20.968H116.268V18.392H118.7ZM125.653 23.208C124.522 23.208 123.498 22.9573 122.581 22.456C121.664 21.944 120.944 21.256 120.421 20.392C119.909 19.5173 119.653 18.5573 119.653 17.512C119.653 16.4667 119.909 15.5067 120.421 14.632C120.944 13.7573 121.664 13.0693 122.581 12.568C123.498 12.056 124.522 11.8 125.653 11.8C126.773 11.8 127.786 12.056 128.693 12.568C129.61 13.0693 130.325 13.7573 130.837 14.632C131.36 15.5067 131.621 16.4667 131.621 17.512C131.621 18.5573 131.36 19.5173 130.837 20.392C130.325 21.256 129.61 21.944 128.693 22.456C127.786 22.9573 126.773 23.208 125.653 23.208ZM125.653 21.112C126.314 21.112 126.89 20.952 127.381 20.632C127.882 20.3013 128.261 19.864 128.517 19.32C128.784 18.7653 128.917 18.1627 128.917 17.512C128.917 16.8507 128.784 16.248 128.517 15.704C128.261 15.1493 127.882 14.712 127.381 14.392C126.89 14.0613 126.314 13.896 125.653 13.896C124.97 13.896 124.378 14.0613 123.877 14.392C123.386 14.7227 123.008 15.1653 122.741 15.72C122.485 16.264 122.357 16.8613 122.357 17.512C122.357 18.1733 122.485 18.7813 122.741 19.336C123.008 19.88 123.386 20.312 123.877 20.632C124.378 20.952 124.97 21.112 125.653 21.112ZM145.34 22.072C145.031 22.4133 144.684 22.6907 144.3 22.904C143.927 23.1173 143.458 23.224 142.892 23.224C141.868 23.224 141.015 22.872 140.332 22.168C139.66 21.4533 139.154 20.344 138.812 18.84L138.764 18.632H137.068V20.984H138.78V23H132.684V20.968H134.476V14.056H132.684V12.024H139.26C140.583 12.024 141.644 12.312 142.444 12.888C143.244 13.4533 143.644 14.2587 143.644 15.304C143.644 16.136 143.415 16.824 142.956 17.368C142.508 17.9013 141.868 18.2693 141.036 18.472L141.116 18.712C141.372 19.512 141.66 20.072 141.98 20.392C142.311 20.7013 142.668 20.856 143.052 20.856C143.287 20.856 143.49 20.8187 143.66 20.744C143.831 20.6587 143.996 20.5413 144.156 20.392L145.34 22.072ZM137.068 16.728H139.34C139.788 16.728 140.188 16.616 140.54 16.392C140.903 16.168 141.084 15.8053 141.084 15.304C141.084 14.856 140.908 14.536 140.556 14.344C140.215 14.152 139.81 14.056 139.34 14.056H137.068V16.728ZM154.522 16.104V14.056H149.77V16.728H151.45V15.464H153.354V19.816H151.45V18.552H149.77V20.968H154.522V18.92H156.778V23H145.45V20.968H147.226V14.056H145.45V12.024H156.778V16.104H154.522ZM174.896 12.024V16.248H172.64V14.056H170.304V20.968H172.048V23H165.952V20.968H167.712V14.056H165.36V16.248H163.104V12.024H174.896ZM187.776 14.056V20.968H189.552V23H183.392V20.968H185.168V18.36H180.256V20.968H182.016V23H175.856V20.968H177.648V14.056H175.856V12.024H182.016V14.056H180.256V16.456H185.168V14.056H183.392V12.024H189.552V14.056H187.776ZM199.678 16.104V14.056H194.926V16.728H196.606V15.464H198.51V19.816H196.606V18.552H194.926V20.968H199.678V18.92H201.934V23H190.606V20.968H192.382V14.056H190.606V12.024H201.934V16.104H199.678ZM214.388 16.36C215.796 16.7653 216.889 17.2507 217.668 17.816C218.446 18.3813 218.836 19.1333 218.836 20.072C218.836 20.7227 218.67 21.2827 218.34 21.752C218.009 22.2213 217.556 22.584 216.98 22.84C216.404 23.0853 215.753 23.208 215.028 23.208C214.345 23.208 213.689 23.0747 213.06 22.808C212.43 22.5413 211.806 22.1627 211.188 21.672V22.984H208.932V18.984L210.532 18.904C211.086 19.576 211.78 20.1253 212.612 20.552C213.444 20.968 214.19 21.176 214.852 21.176C215.246 21.176 215.556 21.1067 215.78 20.968C216.014 20.8293 216.132 20.6213 216.132 20.344C216.132 20.0133 215.87 19.7093 215.348 19.432C214.825 19.1547 213.918 18.84 212.628 18.488C211.348 18.136 210.414 17.6773 209.828 17.112C209.241 16.536 208.948 15.816 208.948 14.952C208.948 14.3227 209.124 13.7733 209.476 13.304C209.828 12.824 210.292 12.456 210.868 12.2C211.444 11.9333 212.057 11.8 212.708 11.8C214.02 11.8 215.118 12.2107 216.004 13.032V12.024H218.26V15.912L216.74 15.992C216.388 15.3093 215.897 14.7813 215.268 14.408C214.649 14.024 214.014 13.832 213.364 13.832C212.852 13.832 212.436 13.9227 212.116 14.104C211.806 14.2853 211.652 14.5307 211.652 14.84C211.652 15.1387 211.849 15.4 212.244 15.624C212.638 15.8373 213.353 16.0827 214.388 16.36ZM224.271 14.056V20.968H226.079V23H219.887V20.968H221.679V14.056H219.887V12.024H226.079V14.056H224.271ZM238.817 12.024V16.248H236.561V14.056H234.225V20.968H235.969V23H229.873V20.968H231.633V14.056H229.281V16.248H227.025V12.024H238.817ZM248.85 16.104V14.056H244.098V16.728H245.778V15.464H247.682V19.816H245.778V18.552H244.098V20.968H248.85V18.92H251.106V23H239.778V20.968H241.554V14.056H239.778V12.024H251.106V16.104H248.85Z" fill="black"/>
<path d="M41.5454 97.9975H290.071C293.751 97.9975 296.998 95.5187 297.864 91.6879L309.771 44.3658C311.07 39.1829 307.39 34 301.978 34H28.1233C22.7112 34 18.8144 39.4082 20.3298 44.5911L33.9684 92.1386C34.8344 95.5187 38.0817 97.9975 41.5454 97.9975Z" fill="#C8C0B0"/>
<path d="M53.834 71.1602C53.834 71.8802 53.7565 72.5137 53.6016 73.0605C53.4557 73.5983 53.2598 74.0632 53.0137 74.4551C52.7767 74.8379 52.5078 75.1569 52.207 75.4121C51.9062 75.6582 51.5964 75.8542 51.2773 76C50.9674 76.1458 50.6667 76.2461 50.375 76.3008C50.0924 76.3646 49.8464 76.3965 49.6367 76.3965C49.5273 76.3965 49.377 76.3874 49.1855 76.3691C48.9941 76.36 48.7754 76.3327 48.5293 76.2871C48.2832 76.2415 48.0098 76.1732 47.709 76.082C47.4173 76 47.1074 75.8815 46.7793 75.7266L46.9297 72.2812C47.4674 72.737 47.946 73.0423 48.3652 73.1973C48.7936 73.3522 49.1536 73.4297 49.4453 73.4297C50.0104 73.4297 50.4342 73.2246 50.7168 72.8145C51.0085 72.4043 51.1543 71.8711 51.1543 71.2148C51.1543 70.7773 51.0449 70.2897 50.8262 69.752C50.6165 69.2051 50.2383 68.6172 49.6914 67.9883C49.3177 67.5508 48.9303 67.0951 48.5293 66.6211C48.1283 66.1471 47.7637 65.6413 47.4355 65.1035C47.1074 64.5658 46.8385 63.987 46.6289 63.3672C46.4193 62.7474 46.3145 62.0775 46.3145 61.3574C46.3145 60.446 46.4375 59.6576 46.6836 58.9922C46.9388 58.3268 47.276 57.7754 47.6953 57.3379C48.1146 56.9004 48.5931 56.5768 49.1309 56.3672C49.6777 56.1484 50.2474 56.0391 50.8398 56.0391C51.3594 56.0391 51.888 56.112 52.4258 56.2578C52.9727 56.3945 53.5195 56.6087 54.0664 56.9004L53.8066 60.3457C53.5697 60.0449 53.319 59.8079 53.0547 59.6348C52.7995 59.4525 52.5488 59.3158 52.3027 59.2246C52.0658 59.1335 51.8424 59.0742 51.6328 59.0469C51.4323 59.0195 51.2637 59.0059 51.127 59.0059C50.8626 59.0059 50.6165 59.0742 50.3887 59.2109C50.1699 59.3385 49.9785 59.5163 49.8145 59.7441C49.6595 59.9629 49.5365 60.2272 49.4453 60.5371C49.3542 60.8379 49.3086 61.1569 49.3086 61.4941C49.3086 62.0137 49.418 62.4831 49.6367 62.9023C49.8646 63.3216 50.1471 63.7363 50.4844 64.1465C50.8216 64.5566 51.1816 64.9805 51.5645 65.418C51.9564 65.8464 52.321 66.334 52.6582 66.8809C52.9954 67.4186 53.2734 68.0384 53.4922 68.7402C53.7201 69.4329 53.834 70.2396 53.834 71.1602ZM61.1687 68.6855C60.8861 68.6673 60.599 68.6536 60.3073 68.6445C60.0157 68.6354 59.724 68.6309 59.4323 68.6309C59.2683 68.6309 59.0951 68.6354 58.9128 68.6445C58.7396 68.6536 58.5665 68.6582 58.3933 68.6582L58.3386 73.5391C59.086 73.5208 59.8106 73.4844 60.5124 73.4297C61.2234 73.375 61.9753 73.2884 62.7683 73.1699V76.0273C62.2579 76.0091 61.7611 75.9954 61.278 75.9863C60.8041 75.9772 60.3301 75.9727 59.8562 75.9727C59.1452 75.9727 58.4434 75.9818 57.7507 76C57.058 76.0273 56.3425 76.0638 55.6042 76.1094C55.6862 74.4141 55.7501 72.737 55.7956 71.0781C55.8503 69.4102 55.8777 67.7285 55.8777 66.0332C55.8777 64.4108 55.8549 62.8021 55.8093 61.207C55.7728 59.6029 55.7045 57.9896 55.6042 56.3672C56.6797 56.4492 57.7051 56.4902 58.6804 56.4902C59.3002 56.4902 59.9154 56.4766 60.5261 56.4492C61.1459 56.4128 61.8067 56.3672 62.5085 56.3125V59.457C61.9434 59.3568 61.3829 59.2793 60.8269 59.2246C60.28 59.1699 59.7331 59.1426 59.1862 59.1426H58.653C58.5619 60.2819 58.4981 61.4167 58.4616 62.5469C58.4343 63.6771 58.4115 64.8118 58.3933 65.9512C58.6303 65.9694 58.8672 65.9785 59.1042 65.9785C59.3503 65.9785 59.601 65.9785 59.8562 65.9785C60.0658 65.9785 60.28 65.9785 60.4987 65.9785C60.7175 65.9785 60.9408 65.9694 61.1687 65.9512V68.6855ZM69.8705 76.1094C69.825 75.4805 69.7794 74.847 69.7338 74.209C69.6974 73.571 69.6518 72.9284 69.5971 72.2812C69.1961 72.2539 68.8087 72.2266 68.435 72.1992C68.0613 72.1719 67.683 72.1582 67.3002 72.1582H67.1225C67.0769 72.8145 67.0359 73.4616 66.9995 74.0996C66.963 74.7376 66.9311 75.3711 66.9037 76L63.4858 75.9453C64.0509 72.6914 64.5613 69.4466 65.017 66.2109C65.4728 62.9753 65.8601 59.7122 66.1791 56.4219L70.2944 56.4902C70.6407 59.7441 71.0554 62.9798 71.5385 66.1973C72.0307 69.4056 72.6049 72.6367 73.2612 75.8906L69.8705 76.1094ZM68.2709 59.8672C68.0886 61.5443 67.9155 63.2168 67.7514 64.8848C67.5873 66.5527 67.437 68.2344 67.3002 69.9297C67.4916 69.9479 67.6876 69.957 67.8881 69.957C68.0886 69.957 68.2937 69.957 68.5034 69.957H69.392C69.2371 68.2617 69.0639 66.5801 68.8725 64.9121C68.6811 63.2441 68.4806 61.5625 68.2709 59.8672ZM82.4552 62.2188C82.4552 62.8294 82.396 63.4447 82.2775 64.0645C82.1681 64.6751 81.9858 65.2676 81.7306 65.8418C81.4754 66.4069 81.1473 66.9401 80.7463 67.4414C80.3452 67.9336 79.853 68.3711 79.2697 68.7539C79.7801 70.0573 80.3407 71.3105 80.9513 72.5137C81.5711 73.7077 82.2593 74.8607 83.0158 75.9727L79.5978 76.1641L77.2736 69.5605C77.3101 70.6725 77.3556 71.7754 77.4103 72.8691C77.465 73.9629 77.5334 75.043 77.6154 76.1094H74.2795C74.4253 74.0404 74.5301 71.9714 74.5939 69.9023C74.6668 67.8333 74.7033 65.7507 74.7033 63.6543C74.7033 62.4421 74.6942 61.2344 74.6759 60.0312C74.6577 58.819 74.6213 57.5977 74.5666 56.3672C75.0496 56.2214 75.5373 56.1257 76.0295 56.0801C76.5308 56.0345 76.9546 56.0117 77.3009 56.0117C77.547 56.0117 77.8433 56.0391 78.1896 56.0938C78.5451 56.1393 78.9142 56.2396 79.297 56.3945C79.6798 56.5495 80.0581 56.7682 80.4318 57.0508C80.8146 57.3333 81.1518 57.707 81.4435 58.1719C81.7443 58.6276 81.9858 59.1882 82.1681 59.8535C82.3595 60.5098 82.4552 61.2982 82.4552 62.2188ZM77.2463 67.3457C77.5653 67.2546 77.8433 67.1224 78.0802 66.9492C78.3263 66.7669 78.5405 66.5618 78.7228 66.334C78.9051 66.1061 79.0555 65.8646 79.174 65.6094C79.3016 65.3542 79.4064 65.099 79.4884 64.8438C79.6707 64.2513 79.7755 63.6042 79.8029 62.9023C79.8029 62.8841 79.7983 62.7747 79.7892 62.5742C79.7892 62.3646 79.7664 62.1048 79.7209 61.7949C79.6753 61.485 79.6069 61.1478 79.5158 60.7832C79.4338 60.4186 79.3107 60.0677 79.1466 59.7305C78.9826 59.3841 78.7729 59.0788 78.5177 58.8145C78.2625 58.5501 77.9526 58.3633 77.588 58.2539C77.4787 59.6849 77.3921 61.1113 77.3283 62.5332C77.2736 63.946 77.2463 65.3724 77.2463 66.8125V67.3457ZM91.8407 75.6582C91.4852 75.8223 91.1343 75.9453 90.788 76.0273C90.4416 76.1185 90.1317 76.1868 89.8583 76.2324C89.5393 76.278 89.2294 76.3053 88.9286 76.3145C88.6005 76.3145 88.245 76.2552 87.8622 76.1367C87.4885 76.0182 87.1102 75.8177 86.7274 75.5352C86.3446 75.2435 85.9755 74.8516 85.62 74.3594C85.2645 73.8581 84.9501 73.2337 84.6766 72.4863C84.4032 71.7298 84.1845 70.8275 84.0204 69.7793C83.8563 68.7311 83.7743 67.5098 83.7743 66.1152C83.7743 64.7207 83.87 63.5039 84.0614 62.4648C84.2619 61.4258 84.5171 60.5371 84.827 59.7988C85.146 59.0514 85.5015 58.4408 85.8934 57.9668C86.2945 57.4837 86.7001 57.1055 87.1102 56.832C87.5204 56.5495 87.9169 56.3581 88.2997 56.2578C88.6916 56.1484 89.0289 56.0938 89.3114 56.0938C89.5757 56.1029 89.8355 56.1302 90.0907 56.1758C90.3095 56.2214 90.5373 56.2897 90.7743 56.3809C91.0204 56.472 91.2346 56.5996 91.4169 56.7637L91.1434 59.5117C90.8882 59.3841 90.6467 59.293 90.4188 59.2383C90.2001 59.1745 89.9904 59.1426 89.7899 59.1426C89.4071 59.1426 89.0653 59.2474 88.7645 59.457C88.4729 59.6576 88.2177 59.9264 87.9989 60.2637C87.7893 60.6009 87.607 60.9837 87.452 61.4121C87.3062 61.8405 87.1877 62.278 87.0966 62.7246C86.8687 63.7728 86.7411 64.9668 86.7137 66.3066C86.7411 67.6374 86.8733 68.8223 87.1102 69.8613C87.2105 70.3079 87.3335 70.7454 87.4794 71.1738C87.6343 71.5931 87.8212 71.9714 88.0399 72.3086C88.2587 72.6367 88.5139 72.901 88.8055 73.1016C89.1063 73.3021 89.4527 73.4023 89.8446 73.4023C90.273 73.4023 90.7697 73.252 91.3348 72.9512L91.8407 75.6582ZM96.7555 56.3672C96.6643 58.1719 96.5869 59.9629 96.523 61.7402C96.4592 63.5085 96.4137 65.2858 96.3863 67.0723C96.6142 67.0905 96.8421 67.0996 97.0699 67.0996C97.3069 67.0996 97.5393 67.0996 97.7672 67.0996C98.0589 67.0996 98.3551 67.0951 98.6559 67.0859C98.9658 67.0768 99.2757 67.0632 99.5855 67.0449C99.6038 66.6439 99.6129 66.252 99.6129 65.8691C99.6129 65.4772 99.6129 65.0762 99.6129 64.666C99.6129 63.2806 99.5992 61.8997 99.5719 60.5234C99.5445 59.1471 99.499 57.7617 99.4352 56.3672H102.798C102.634 58.5638 102.507 60.7467 102.416 62.916C102.334 65.0762 102.293 67.2546 102.293 69.4512C102.293 70.5267 102.306 71.5977 102.334 72.6641C102.361 73.7305 102.397 74.806 102.443 75.8906H99.3258C99.3714 74.806 99.4124 73.7259 99.4488 72.6504C99.4853 71.5749 99.5217 70.4993 99.5582 69.4238C99.0387 69.3965 98.5191 69.3737 97.9996 69.3555C97.4892 69.3281 96.9788 69.3145 96.4684 69.3145H96.359V72.1309C96.359 72.7689 96.359 73.3978 96.359 74.0176C96.359 74.6374 96.3681 75.2617 96.3863 75.8906H93.2555C93.301 74.5781 93.3284 73.2839 93.3375 72.0078C93.3557 70.7227 93.3648 69.4329 93.3648 68.1387C93.3648 64.2194 93.2828 60.2956 93.1188 56.3672H96.7555Z" fill="black"/>
<line x1="110.592" y1="82.6494" x2="322.592" y2="82.6494" stroke="black" stroke-width="3" stroke-linecap="round" stroke-dasharray="0.25 7"/>
<path d="M288 54L299.136 67.037L294.383 76L320.185 65.4074L288 54Z" fill="white"/>
<path d="M291 54L301.123 65.8519L296.802 74L320.259 64.3704L291 54Z" fill="black"/>
</svg>
