<svg width="27" height="46" viewBox="0 0 27 46" fill="none" xmlns="http://www.w3.org/2000/svg">
<path d="M13.0027 45.4817C13.334 41.6227 13.5824 37.8555 13.7481 34.0883C13.9137 32.1588 13.9965 30.3212 14.0793 28.3916C14.1622 27.289 14.1622 26.1865 14.1622 25.1757L20.7877 29.2186L22.527 30.3212L26.0054 32.3426L26.0882 32.2507C25.0115 31.3319 24.0177 30.413 23.0239 29.4942C22.5269 29.0348 21.9472 28.5754 21.4503 28.2079L19.9595 26.8296C18.2203 25.3595 16.5639 23.8894 14.8247 22.5112C15.4045 21.868 15.9842 21.2248 16.5639 20.4898L19.0485 17.182C20.7049 14.9768 22.4441 12.7716 24.1005 10.4746H24.0177C21.9472 12.2203 19.9595 14.1499 17.9719 15.9875C16.978 16.9063 15.9842 17.8252 14.9904 18.8359L14.1622 19.6628C14.0793 16.9063 13.9137 14.1499 13.7481 11.3015L13.5824 8.54506C13.4996 7.53435 13.4996 6.61553 13.4168 5.6967C13.334 3.76718 13.1683 1.83765 13.0027 0H12.9199C12.837 1.83765 12.6714 3.76718 12.5886 5.6967C12.5058 6.61553 12.423 7.53435 12.423 8.54506L12.2573 11.3015C12.0917 14.3336 11.926 17.2739 11.8432 20.306L10.3525 19.2953L6.87403 17.182C4.6379 15.8038 2.31895 14.4255 0 13.1392C1.98767 14.9768 3.97534 16.8145 6.04584 18.6521C7.12249 19.479 8.11633 20.3979 9.11016 21.3167C9.77272 21.868 10.4353 22.4193 11.0978 22.8787C9.6899 24.6245 8.36479 26.4621 6.95685 28.2997L5.63174 29.9536L1.90485 34.9153L1.98767 35.0072L4.96918 32.2507L6.54275 30.8725L8.03351 29.4023L11.8432 25.8189C11.8432 26.6459 11.8432 27.5647 11.926 28.3916C12.0089 30.3212 12.0917 32.1588 12.2573 34.0883C12.423 37.8555 12.6714 41.6227 13.0027 45.4817Z" fill="#D04D2A"/>
</svg>
