<svg width="834" height="1194" viewBox="0 0 834 1194" fill="none" xmlns="http://www.w3.org/2000/svg">
<path d="M365.502 27.1206C366.422 27.1206 367.139 26.7207 367.571 25.9907H367.672V27H368.777V22.3154C368.777 20.8936 367.844 20.0366 366.174 20.0366C364.714 20.0366 363.673 20.7603 363.496 21.833L363.489 21.8711H364.594L364.6 21.8521C364.778 21.3188 365.317 21.0142 366.136 21.0142C367.158 21.0142 367.672 21.4712 367.672 22.3154V22.9375L365.711 23.0581C364.118 23.1533 363.216 23.8579 363.216 25.0767V25.0894C363.216 26.3335 364.2 27.1206 365.502 27.1206ZM364.346 25.064V25.0513C364.346 24.3721 364.803 24.0039 365.844 23.9404L367.672 23.8262V24.4482C367.672 25.4258 366.854 26.1621 365.73 26.1621C364.937 26.1621 364.346 25.7559 364.346 25.064ZM370.717 27H371.822V22.7598C371.822 21.7949 372.501 21.0142 373.396 21.0142C374.259 21.0142 374.818 21.541 374.818 22.3535V27H375.923V22.6011C375.923 21.7314 376.551 21.0142 377.503 21.0142C378.468 21.0142 378.931 21.5156 378.931 22.5249V27H380.036V22.271C380.036 20.8364 379.255 20.0366 377.859 20.0366C376.913 20.0366 376.132 20.5127 375.764 21.2363H375.662C375.345 20.5254 374.697 20.0366 373.771 20.0366C372.876 20.0366 372.228 20.4619 371.924 21.1982H371.822V20.1572H370.717V27ZM383.83 27.1206C384.75 27.1206 385.468 26.7207 385.899 25.9907H386.001V27H387.105V22.3154C387.105 20.8936 386.172 20.0366 384.503 20.0366C383.043 20.0366 382.002 20.7603 381.824 21.833L381.818 21.8711H382.922L382.929 21.8521C383.106 21.3188 383.646 21.0142 384.465 21.0142C385.487 21.0142 386.001 21.4712 386.001 22.3154V22.9375L384.039 23.0581C382.446 23.1533 381.545 23.8579 381.545 25.0767V25.0894C381.545 26.3335 382.529 27.1206 383.83 27.1206ZM382.675 25.064V25.0513C382.675 24.3721 383.132 24.0039 384.173 23.9404L386.001 23.8262V24.4482C386.001 25.4258 385.182 26.1621 384.058 26.1621C383.265 26.1621 382.675 25.7559 382.675 25.064ZM388.951 23.8262H393.216V22.7979H388.951V23.8262ZM396.979 27.1206C397.899 27.1206 398.616 26.7207 399.048 25.9907H399.15V27H400.254V22.3154C400.254 20.8936 399.321 20.0366 397.651 20.0366C396.191 20.0366 395.15 20.7603 394.973 21.833L394.966 21.8711H396.071L396.077 21.8521C396.255 21.3188 396.795 21.0142 397.613 21.0142C398.635 21.0142 399.15 21.4712 399.15 22.3154V22.9375L397.188 23.0581C395.595 23.1533 394.693 23.8579 394.693 25.0767V25.0894C394.693 26.3335 395.677 27.1206 396.979 27.1206ZM395.823 25.064V25.0513C395.823 24.3721 396.28 24.0039 397.321 23.9404L399.15 23.8262V24.4482C399.15 25.4258 398.331 26.1621 397.207 26.1621C396.414 26.1621 395.823 25.7559 395.823 25.064ZM402.195 27H403.299V22.9502C403.299 21.7505 403.991 21.0142 405.083 21.0142C406.175 21.0142 406.682 21.6045 406.682 22.8359V27H407.787V22.5693C407.787 20.9443 406.93 20.0366 405.394 20.0366C404.385 20.0366 403.743 20.4619 403.401 21.1855H403.299V20.1572H402.195V27ZM410.038 29.3994C411.251 29.3994 411.816 28.9551 412.381 27.4189L415.053 20.1572H413.891L412.019 25.7876H411.917L410.038 20.1572H408.858L411.391 27.0063L411.264 27.4126C411.016 28.1997 410.635 28.4854 410.007 28.4854C409.854 28.4854 409.683 28.479 409.55 28.4536V29.3613C409.702 29.3867 409.892 29.3994 410.038 29.3994ZM418.866 27.0508C419.082 27.0508 419.292 27.0254 419.507 26.9873V26.0479C419.304 26.0669 419.196 26.0732 419 26.0732C418.289 26.0732 418.009 25.7495 418.009 24.9434V21.0713H419.507V20.1572H418.009V18.3862H416.867V20.1572H415.788V21.0713H416.867V25.2227C416.867 26.5303 417.457 27.0508 418.866 27.0508ZM421.664 18.8369C422.083 18.8369 422.425 18.4941 422.425 18.0752C422.425 17.6562 422.083 17.3135 421.664 17.3135C421.245 17.3135 420.902 17.6562 420.902 18.0752C420.902 18.4941 421.245 18.8369 421.664 18.8369ZM421.105 27H422.21V20.1572H421.105V27ZM424.214 27H425.318V22.7598C425.318 21.7949 425.997 21.0142 426.892 21.0142C427.756 21.0142 428.314 21.541 428.314 22.3535V27H429.419V22.6011C429.419 21.7314 430.047 21.0142 430.999 21.0142C431.964 21.0142 432.427 21.5156 432.427 22.5249V27H433.532V22.271C433.532 20.8364 432.751 20.0366 431.355 20.0366C430.409 20.0366 429.628 20.5127 429.26 21.2363H429.158C428.841 20.5254 428.194 20.0366 427.267 20.0366C426.372 20.0366 425.724 20.4619 425.42 21.1982H425.318V20.1572H424.214V27ZM438.24 27.1206C439.852 27.1206 440.83 26.2065 441.065 25.2798L441.078 25.229H439.973L439.948 25.2861C439.764 25.6987 439.192 26.1367 438.266 26.1367C437.047 26.1367 436.266 25.3115 436.234 23.896H441.16V23.4644C441.16 21.4204 440.03 20.0366 438.17 20.0366C436.31 20.0366 435.104 21.4839 435.104 23.5977V23.604C435.104 25.7495 436.285 27.1206 438.24 27.1206ZM438.164 21.0205C439.173 21.0205 439.922 21.6616 440.036 23.0137H436.253C436.374 21.7124 437.148 21.0205 438.164 21.0205ZM443.697 27.0635C444.154 27.0635 444.522 26.689 444.522 26.2383C444.522 25.7812 444.154 25.4131 443.697 25.4131C443.247 25.4131 442.872 25.7812 442.872 26.2383C442.872 26.689 443.247 27.0635 443.697 27.0635ZM449.123 27.1206C450.767 27.1206 451.687 26.2383 451.966 25.0005L451.979 24.9307L450.887 24.937L450.875 24.9751C450.621 25.7368 450.037 26.1431 449.116 26.1431C447.898 26.1431 447.11 25.1338 447.11 23.5596V23.5469C447.11 22.0044 447.885 21.0142 449.116 21.0142C450.1 21.0142 450.71 21.5601 450.881 22.2329L450.887 22.252H451.985L451.979 22.2139C451.776 20.9951 450.779 20.0366 449.116 20.0366C447.199 20.0366 445.981 21.4204 445.981 23.5469V23.5596C445.981 25.7305 447.206 27.1206 449.123 27.1206ZM456.332 27.1206C458.281 27.1206 459.487 25.7749 459.487 23.585V23.5723C459.487 21.376 458.281 20.0366 456.332 20.0366C454.383 20.0366 453.177 21.376 453.177 23.5723V23.585C453.177 25.7749 454.383 27.1206 456.332 27.1206ZM456.332 26.1431C455.037 26.1431 454.307 25.1973 454.307 23.585V23.5723C454.307 21.9536 455.037 21.0142 456.332 21.0142C457.627 21.0142 458.357 21.9536 458.357 23.5723V23.585C458.357 25.1973 457.627 26.1431 456.332 26.1431ZM461.122 27H462.227V22.7598C462.227 21.7949 462.906 21.0142 463.801 21.0142C464.664 21.0142 465.223 21.541 465.223 22.3535V27H466.328V22.6011C466.328 21.7314 466.956 21.0142 467.908 21.0142C468.873 21.0142 469.336 21.5156 469.336 22.5249V27H470.441V22.271C470.441 20.8364 469.66 20.0366 468.264 20.0366C467.318 20.0366 466.537 20.5127 466.169 21.2363H466.067C465.75 20.5254 465.102 20.0366 464.176 20.0366C463.281 20.0366 462.633 20.4619 462.328 21.1982H462.227V20.1572H461.122V27Z" fill="black"/>
<path d="M606.751 214.223L606.764 214.169L606.775 214.114C609.573 199.919 598.345 186.709 583.887 188.91L583.88 188.911L583.873 188.912L256.733 240.469L256.705 240.473L256.677 240.478C244.585 242.644 236.682 255.586 240.964 267.285L282.459 396.75L282.473 396.794L282.488 396.837C285.335 404.781 293.137 410.576 301.764 410.576H544.021C553.414 410.576 561.257 403.97 563.384 394.656C563.385 394.65 563.387 394.644 563.388 394.638L606.751 214.223Z" fill="#D9D9D9" stroke="#7D7E34" stroke-width="5.41123"/>
<path d="M304.687 404.226H541.126C548.987 404.226 555.639 398.783 557.453 390.922L599.783 217.372C602.202 205.278 592.526 194.393 580.432 196.207L261.148 245.793C250.868 247.607 244.216 258.492 247.844 268.167L288.36 392.736C290.778 399.388 297.43 404.226 304.687 404.226Z" fill="#6EA5A0"/>
<path d="M298.977 383.179C303.323 383.179 310.959 376.601 315.07 370.61C312.956 373.782 312.016 375.191 311.664 377.188C311.194 380.125 315.423 383.179 319.064 383.179C324.233 383.179 329.519 375.426 335.979 368.731C335.392 367.556 334.687 367.439 333.747 368.378C329.636 372.49 324.702 376.953 321.648 378.598C319.534 379.773 319.064 378.95 319.416 377.188C320.826 368.731 338.916 349.231 342.792 346.294C341.148 344.298 335.157 342.066 332.338 345.12L331.515 346.177C330.693 343.71 325.055 341.596 323.175 341.596C314.835 341.596 293.691 365.794 291.929 376.249C291.342 379.773 296.04 383.179 298.977 383.179ZM300.034 378.598C299.212 378.598 299.33 378.128 299.447 377.658C300.387 372.255 318.007 351.346 322.353 348.526C324.82 346.764 329.636 347.117 329.284 348.879C319.064 361.33 303.558 378.598 300.034 378.598Z" fill="#2D2D2B"/>
<path d="M357.117 383.179C364.635 383.179 367.571 375.426 374.032 368.731C373.445 367.556 372.74 367.439 371.8 368.378C367.571 372.372 360.641 378.598 358.644 378.598C357.704 378.598 357.234 378.011 357.469 376.601C358.879 368.966 376.264 354.165 376.264 349.114C376.264 345.942 371.33 341.948 368.629 341.948C365.927 341.948 357.234 351.346 349.599 358.981C354.18 353.108 358.174 348.174 359.114 345.942C360.054 343.593 356.412 341.008 352.418 342.653C350.069 350.053 328.69 372.49 328.69 376.601C328.572 379.773 332.331 382.592 335.62 382.592C335.62 377.541 363.695 346.177 368.746 346.177C369.333 346.177 369.568 346.412 369.333 347.117C368.981 349.701 348.424 367.204 348.424 374.839C348.424 377.776 353.475 383.179 357.117 383.179Z" fill="#2D2D2B"/>
<path d="M355.866 423.588C369.727 423.588 387.817 384.236 419.063 344.532C418.593 341.713 412.133 337.132 409.313 340.656C404.145 350.993 385.115 376.601 376.893 376.601C376.305 376.601 376.305 376.366 376.305 375.661C376.305 370.493 397.919 351.111 397.919 345.59C397.919 342.653 394.63 339.129 390.401 340.069C388.992 347.704 368.905 366.499 368.905 373.664C368.905 376.836 375.013 382.004 377.715 382.004C379.477 382.004 385.233 377.776 390.049 372.842C386.525 377.658 383.001 382.592 379.477 387.29C379.007 386.821 378.067 386.586 376.658 386.586C359.86 388.113 346.234 402.561 343.767 410.196C341.77 416.422 351.402 423.588 355.866 423.588ZM353.634 416.657C352.225 416.657 352.459 414.778 352.694 413.955C354.691 406.79 367.025 391.754 377.597 389.64C365.498 405.733 357.628 416.657 353.634 416.657Z" fill="#2D2D2B"/>
<path d="M418.059 382.944C423.815 382.944 437.089 368.261 437.089 366.616C437.089 365.559 435.797 364.737 435.209 365.207C427.457 372.959 420.526 376.249 417.824 376.249C416.18 376.249 415.592 375.426 415.592 373.782C415.592 369.553 428.749 355.927 437.324 345.472C440.261 345.12 441.553 344.885 443.785 345.237C444.959 344.298 446.016 341.948 445.194 341.596C444.254 341.243 442.727 341.126 440.848 341.126C444.842 335.957 446.486 333.96 446.486 331.611C446.486 329.967 443.902 326.56 439.438 327.147C438.381 331.611 436.384 334.9 432.39 340.421C430.511 340.069 428.514 339.481 426.399 338.659C423.698 339.951 421.466 343.71 423.698 346.06C424.168 346.647 425.695 346.764 427.574 346.647C420.291 355.692 407.135 364.972 406.9 370.14C406.665 376.601 414.418 382.944 418.059 382.944Z" fill="#2D2D2B"/>
<path d="M460.3 340.069C462.766 340.069 465.938 338.307 466.525 335.135C466.995 332.316 465.116 330.436 462.532 330.436C458.42 330.436 456.658 332.551 456.188 335.135C455.601 338.189 458.303 340.069 460.3 340.069ZM436.689 382.944C442.68 382.944 454.661 373.312 459.595 366.146L457.598 364.502C452.429 369.905 443.032 378.128 438.803 378.128C438.098 378.128 437.981 377.658 437.863 376.601C437.746 371.197 459.477 352.99 459.477 347.704C459.477 342.418 455.131 341.008 450.785 342.183C449.728 350.053 429.641 368.966 429.641 373.899C429.641 377.776 434.457 382.944 436.689 382.944Z" fill="#2D2D2B"/>
<path d="M497.421 383.179C502.59 383.179 507.876 375.426 511.987 368.731C511.4 367.556 510.577 367.321 509.755 368.378C505.409 373.664 498.596 378.598 496.599 378.598C495.659 378.598 495.189 378.011 495.424 376.601C496.834 368.966 514.219 353.812 514.219 349.114C514.219 346.177 509.285 341.948 506.583 341.948C504.352 341.948 497.656 348.526 491.43 354.987C493.545 352.05 495.189 349.584 495.424 347.939C495.659 345.942 491.665 341.948 488.963 341.948C486.732 341.948 479.449 348.526 472.753 355.104C476.042 350.993 478.744 347.704 479.449 345.942C480.388 343.593 476.747 341.008 472.753 342.653C466.762 353.46 449.025 369.435 449.025 375.426C449.025 379.773 451.609 383.297 455.955 382.592C462.886 367.908 486.262 346.177 488.963 346.177C489.551 346.177 489.786 346.412 489.551 347.117C489.198 349.701 467.584 368.966 467.584 376.131C467.584 379.303 471.813 382.592 475.572 381.652C482.385 366.969 503.999 346.177 506.701 346.177C507.288 346.177 507.523 346.412 507.288 347.117C506.936 349.701 486.262 367.439 486.262 373.664C486.262 378.95 492.605 383.179 497.421 383.179Z" fill="#2D2D2B"/>
<path d="M516.126 383.179C523.174 383.179 537.505 373.077 544.67 365.677C545.61 364.384 544.318 364.032 543.261 363.797C535.625 371.55 521.764 378.48 516.008 378.48C513.424 378.48 513.542 374.604 515.069 372.02C515.656 372.842 516.713 373.429 517.77 373.429C526.815 373.429 544.67 357.219 546.08 348.879C546.667 345.355 541.969 341.008 538.914 341.008C527.638 341.008 506.728 361.33 506.728 373.312C506.728 377.423 511.31 383.179 516.126 383.179ZM516.478 369.553C522.939 359.333 535.625 345.12 540.559 345.12C541.264 345.12 541.264 345.707 541.146 346.177C540.207 351.463 524.701 365.442 516.478 369.553Z" fill="#2D2D2B"/>
<path d="M330.061 331.02H336.195V289.542L366.281 286.037L380.301 157.806L336.195 154.301V128.012H330.061V153.717L286.538 150.212L300.851 293.631L330.061 290.126V331.02Z" fill="black"/>
<path d="M405.899 337.02H412.811V303.137L460.865 301.676L443.421 169.356L412.811 160.593V134.012H405.899V158.548L379.568 150.662L360.149 305.181L405.899 303.429V337.02Z" fill="black"/>
<path d="M478.142 331.02H484.276V289.25L517.576 291.003L524.878 156.054L484.276 154.301V128.012H478.142V154.301L440.754 152.841L456.235 287.497L478.142 288.958V331.02Z" fill="black"/>
<path d="M339.865 257.625H371.085V252.004L364.459 252.405L341.571 181.733H314.969L315.571 189.262L327.718 187.757L309.247 250.096L300.915 249.594V255.116H327.015V249.594L317.579 250.096L322.598 231.625H340.266L345.888 252.305L339.865 252.004V257.625ZM324.305 225.301L331.432 199.401L338.459 225.301H324.305Z" fill="#E6A311"/>
<path d="M492.166 243.595H523.386V237.974L516.76 238.375L493.872 167.704H467.27L467.872 175.233L480.019 173.727L461.548 236.066L453.216 235.564V241.086H479.316V235.564L469.88 236.066L474.899 217.595H492.567L498.189 238.275L492.166 237.974V243.595ZM476.606 211.271L483.733 185.372L490.76 211.271H476.606Z" fill="#E6A311"/>
<path d="M370.295 270.918H404.025V264.995L393.585 265.798L394.89 223.837L406.434 258.37L417.276 258.169L429.724 223.034V264.694L420.187 263.991V269.914H453.917V263.991L443.677 264.694L447.793 206.671L456.828 207.273V201.35H421.793V207.273L429.623 206.671L429.422 207.072L412.056 240.902L395.492 204.864V203.96L402.72 204.563V198.54H368.388V204.563L376.318 203.96L379.832 265.798L370.295 264.995V270.918Z" fill="#E6A311"/>
<path d="M574.464 157.628C574.696 154.926 574.87 152.288 574.986 149.65C575.102 148.299 575.16 147.012 575.218 145.661C575.276 144.889 575.276 144.117 575.276 143.41L579.915 146.24L581.133 147.012L583.568 148.428L583.626 148.363C582.872 147.72 582.176 147.077 581.48 146.433C581.133 146.112 580.727 145.79 580.379 145.533L579.335 144.568C578.117 143.538 576.957 142.509 575.74 141.544C576.145 141.093 576.551 140.643 576.957 140.128L578.697 137.812C579.857 136.268 581.075 134.724 582.234 133.116H582.176C580.727 134.338 579.335 135.689 577.943 136.976C577.247 137.619 576.551 138.263 575.855 138.97L575.276 139.549C575.218 137.619 575.102 135.689 574.986 133.695L574.87 131.765C574.812 131.057 574.812 130.414 574.754 129.771C574.696 128.419 574.58 127.068 574.464 125.782H574.406C574.348 127.068 574.232 128.419 574.174 129.771C574.116 130.414 574.058 131.057 574.058 131.765L573.942 133.695C573.826 135.818 573.71 137.877 573.652 140L572.608 139.292L570.173 137.812C568.607 136.847 566.983 135.882 565.359 134.982C566.751 136.268 568.143 137.555 569.593 138.842C570.346 139.421 571.042 140.064 571.738 140.707C572.202 141.093 572.666 141.48 573.13 141.801C572.144 143.024 571.216 144.31 570.23 145.597L569.303 146.755L566.693 150.229L566.751 150.293L568.839 148.363L569.941 147.398L570.984 146.369L573.652 143.86C573.652 144.439 573.652 145.082 573.71 145.661C573.768 147.012 573.826 148.299 573.942 149.65C574.058 152.288 574.232 154.926 574.464 157.628Z" fill="#D04D2A"/>
<path d="M556.17 192.722C556.536 188.458 556.811 184.296 556.994 180.135C557.177 178.003 557.268 175.973 557.36 173.841C557.451 172.623 557.451 171.405 557.451 170.289L564.771 174.755L566.692 175.973L570.535 178.206L570.627 178.105C569.437 177.089 568.339 176.074 567.241 175.059C566.692 174.552 566.052 174.044 565.503 173.638L563.856 172.116C561.935 170.492 560.105 168.867 558.183 167.345C558.824 166.634 559.464 165.924 560.105 165.112L562.85 161.457C564.679 159.021 566.601 156.585 568.431 154.047H568.339C566.052 155.976 563.856 158.108 561.66 160.138C560.562 161.153 559.464 162.168 558.366 163.285L557.451 164.198C557.36 161.153 557.177 158.108 556.994 154.961L556.811 151.916C556.719 150.799 556.719 149.784 556.628 148.769C556.536 146.637 556.353 144.506 556.17 142.476H556.079C555.987 144.506 555.804 146.637 555.713 148.769C555.621 149.784 555.53 150.799 555.53 151.916L555.347 154.961C555.164 158.311 554.981 161.559 554.889 164.909L553.243 163.792L549.4 161.457C546.929 159.935 544.368 158.412 541.806 156.991C544.002 159.021 546.197 161.051 548.485 163.082C549.674 163.995 550.772 165.01 551.87 166.025C552.602 166.634 553.334 167.243 554.066 167.751C552.511 169.679 551.047 171.71 549.491 173.74L548.027 175.567L543.91 181.048L544.002 181.15L547.295 178.105L549.034 176.582L550.681 174.958L554.889 170.999C554.889 171.913 554.889 172.928 554.981 173.841C555.072 175.973 555.164 178.003 555.347 180.135C555.53 184.296 555.804 188.458 556.17 192.722Z" fill="#D04D2A"/>
<path d="M282.453 153.987C282.708 151.018 282.899 148.12 283.027 145.222C283.154 143.738 283.218 142.324 283.282 140.84C283.345 139.992 283.345 139.144 283.345 138.366L288.442 141.476L289.78 142.324L292.456 143.879L292.519 143.809C291.691 143.102 290.927 142.395 290.162 141.688C289.78 141.335 289.334 140.981 288.952 140.699L287.805 139.639C286.467 138.508 285.193 137.377 283.855 136.317C284.301 135.822 284.747 135.327 285.193 134.762L287.104 132.217C288.378 130.521 289.716 128.825 290.99 127.058H290.927C289.334 128.4 287.805 129.885 286.276 131.298C285.511 132.005 284.747 132.712 283.982 133.489L283.345 134.125C283.282 132.005 283.154 129.885 283.027 127.694L282.899 125.573C282.836 124.796 282.836 124.089 282.772 123.382C282.708 121.898 282.581 120.414 282.453 119H282.39C282.326 120.414 282.199 121.898 282.135 123.382C282.071 124.089 282.007 124.796 282.007 125.573L281.88 127.694C281.753 130.026 281.625 132.288 281.561 134.62L280.415 133.843L277.739 132.217C276.019 131.157 274.235 130.097 272.451 129.107C273.98 130.521 275.509 131.934 277.102 133.348C277.93 133.984 278.695 134.691 279.459 135.398C279.969 135.822 280.478 136.246 280.988 136.599C279.905 137.942 278.886 139.356 277.803 140.769L276.783 142.042L273.916 145.858L273.98 145.929L276.274 143.809L277.484 142.748L278.631 141.618L281.561 138.861C281.561 139.497 281.561 140.204 281.625 140.84C281.689 142.324 281.753 143.738 281.88 145.222C282.007 148.12 282.199 151.018 282.453 153.987Z" fill="#D04D2A"/>
<path d="M262.355 192.542C262.757 187.858 263.058 183.286 263.259 178.713C263.46 176.372 263.561 174.141 263.661 171.799C263.762 170.461 263.762 169.123 263.762 167.896L271.803 172.803L273.914 174.141L278.136 176.595L278.237 176.483C276.93 175.368 275.724 174.253 274.517 173.138C273.914 172.58 273.211 172.022 272.607 171.576L270.798 169.903C268.687 168.119 266.677 166.335 264.566 164.662C265.27 163.882 265.973 163.101 266.677 162.209L269.692 158.194C271.703 155.518 273.814 152.841 275.824 150.053H275.724C273.211 152.172 270.798 154.514 268.386 156.744C267.18 157.86 265.973 158.975 264.767 160.201L263.762 161.205C263.661 157.86 263.46 154.514 263.259 151.057L263.058 147.711C262.958 146.485 262.958 145.37 262.857 144.254C262.757 141.913 262.556 139.571 262.355 137.34H262.254C262.154 139.571 261.953 141.913 261.852 144.254C261.752 145.37 261.651 146.485 261.651 147.711L261.45 151.057C261.249 154.737 261.048 158.306 260.947 161.986L259.138 160.759L254.916 158.194C252.202 156.521 249.388 154.849 246.573 153.287C248.986 155.518 251.398 157.748 253.911 159.978C255.218 160.982 256.424 162.097 257.63 163.212C258.434 163.882 259.239 164.551 260.043 165.108C258.334 167.227 256.726 169.457 255.017 171.688L253.408 173.695L248.885 179.717L248.986 179.829L252.604 176.483L254.514 174.81L256.324 173.026L260.947 168.677C260.947 169.68 260.947 170.796 261.048 171.799C261.148 174.141 261.249 176.372 261.45 178.713C261.651 183.286 261.953 187.858 262.355 192.542Z" fill="#D04D2A"/>
<path d="M258.585 974.385C258.842 971.687 259.035 969.053 259.163 966.42C259.292 965.071 259.356 963.786 259.42 962.437C259.484 961.666 259.484 960.895 259.484 960.189L264.623 963.015L265.972 963.786L268.67 965.199L268.734 965.135C267.899 964.492 267.128 963.85 266.358 963.208C265.972 962.887 265.523 962.565 265.137 962.308L263.981 961.345C262.632 960.317 261.347 959.289 259.998 958.326C260.448 957.876 260.898 957.426 261.347 956.913L263.274 954.6C264.559 953.058 265.908 951.517 267.193 949.911H267.128C265.523 951.131 263.981 952.48 262.439 953.765C261.668 954.407 260.898 955.05 260.127 955.756L259.484 956.334C259.42 954.407 259.292 952.48 259.163 950.489L259.035 948.562C258.971 947.855 258.971 947.213 258.906 946.571C258.842 945.222 258.714 943.873 258.585 942.588H258.521C258.457 943.873 258.328 945.222 258.264 946.571C258.2 947.213 258.135 947.855 258.135 948.562L258.007 950.489C257.878 952.609 257.75 954.664 257.686 956.784L256.53 956.077L253.832 954.6C252.097 953.637 250.299 952.673 248.5 951.774C250.042 953.058 251.583 954.343 253.189 955.628C254.024 956.206 254.795 956.848 255.566 957.491C256.08 957.876 256.594 958.262 257.108 958.583C256.016 959.803 254.988 961.088 253.896 962.373L252.868 963.529L249.977 966.998L250.042 967.062L252.354 965.135L253.575 964.171L254.731 963.143L257.686 960.638C257.686 961.216 257.686 961.859 257.75 962.437C257.814 963.786 257.878 965.071 258.007 966.42C258.135 969.053 258.328 971.687 258.585 974.385Z" fill="#D04D2A"/>
<path d="M190.381 364C190.9 358.478 191.29 353.088 191.549 347.697C191.809 344.936 191.939 342.307 192.068 339.546C192.198 337.968 192.198 336.391 192.198 334.944L202.583 340.729L205.31 342.307L210.762 345.199L210.892 345.068C209.204 343.753 207.646 342.438 206.088 341.124C205.31 340.466 204.401 339.809 203.622 339.283L201.285 337.311C198.559 335.207 195.963 333.104 193.237 331.132C194.145 330.211 195.054 329.291 195.963 328.239L199.857 323.506C202.454 320.351 205.18 317.196 207.776 313.909H207.646C204.401 316.407 201.285 319.168 198.17 321.797C196.612 323.112 195.054 324.427 193.496 325.873L192.198 327.056C192.068 323.112 191.809 319.168 191.549 315.092L191.29 311.148C191.16 309.702 191.16 308.387 191.03 307.072C190.9 304.311 190.641 301.55 190.381 298.921H190.251C190.121 301.55 189.862 304.311 189.732 307.072C189.602 308.387 189.472 309.702 189.472 311.148L189.213 315.092C188.953 319.431 188.693 323.638 188.563 327.976L186.227 326.53L180.775 323.506C177.27 321.534 173.635 319.562 170 317.722C173.116 320.351 176.231 322.98 179.476 325.61C181.164 326.793 182.722 328.108 184.28 329.423C185.318 330.211 186.357 331 187.395 331.658C185.188 334.156 183.111 336.785 180.904 339.415L178.827 341.781L172.986 348.881L173.116 349.012L177.789 345.068L180.255 343.096L182.592 340.992L188.563 335.865C188.563 337.048 188.563 338.363 188.693 339.546C188.823 342.307 188.953 344.936 189.213 347.697C189.472 353.088 189.862 358.478 190.381 364Z" fill="#6EA5A0"/>
<path d="M661.914 484.172L672.17 458.322C647.546 449.192 622.99 434.622 631.881 420.135C647.205 395.419 735.175 375.714 758.414 390.399C780.935 404.479 724.515 464.424 712.317 467.29C708.311 468.232 695.676 465.97 681.753 461.494L661.914 484.172Z" fill="white"/>
<path d="M704.883 437.906C704.831 438.959 704.427 439.828 703.671 440.513C702.915 441.198 702.011 441.515 700.958 441.463C699.905 441.412 699.008 441.006 698.268 440.248C697.583 439.492 697.266 438.588 697.318 437.535C697.369 436.482 697.773 435.613 698.529 434.928C699.343 434.19 700.277 433.847 701.33 433.899C702.383 433.95 703.25 434.382 703.933 435.193C704.618 435.949 704.934 436.853 704.883 437.906ZM714.928 413.234C714.338 413.927 713.668 414.561 712.918 415.135C712.223 415.712 711.5 416.288 710.749 416.862C710.749 416.862 710.72 416.889 710.662 416.941C710.604 416.994 710.575 417.02 710.575 417.02C709.481 417.8 708.44 418.638 707.452 419.533C706.466 420.374 705.665 421.418 705.048 422.665C704.86 423.1 704.672 423.536 704.484 423.971C704.354 424.353 704.223 424.763 704.09 425.201C703.828 426.022 703.62 426.845 703.469 427.671C703.373 428.499 703.274 429.383 703.172 430.323L699.93 430.163C700.155 427.841 700.536 425.749 701.071 423.886C701.666 421.971 702.451 420.121 703.427 418.336C703.856 417.523 704.34 416.714 704.88 415.907C705.422 415.045 706.02 414.185 706.673 413.329C706.795 413.112 706.944 412.898 707.122 412.684C707.299 412.471 707.448 412.256 707.57 412.04C708.11 411.233 708.625 410.341 709.118 409.366C709.61 408.39 709.992 407.409 710.262 406.422C710.392 406.04 710.495 405.656 710.569 405.27C710.646 404.83 710.694 404.416 710.713 404.028C710.752 403.252 710.676 402.526 710.487 401.85C710.298 401.174 709.995 400.548 709.579 399.972C708.744 398.876 707.839 398.081 706.863 397.589C705.89 397.041 704.877 396.741 703.824 396.689C701.937 396.652 700.184 397.288 698.564 398.598C696.947 399.851 695.92 401.523 695.484 403.613C695.825 403.463 696.163 403.368 696.498 403.329C696.836 403.235 697.144 403.194 697.421 403.208C698.529 403.262 699.451 403.724 700.186 404.594C700.976 405.466 701.344 406.456 701.29 407.565C701.266 408.063 701.13 408.557 700.884 409.044C700.696 409.48 700.369 409.908 699.904 410.33C699.497 410.699 699.04 410.954 698.533 411.096C698.026 411.237 697.496 411.295 696.942 411.267C696.11 411.227 695.345 410.967 694.647 410.488C693.948 410.009 693.508 409.349 693.327 408.507C693.138 407.831 693.003 407.185 692.923 406.57C692.9 405.902 692.902 405.291 692.929 404.737C693.154 401.304 694.593 398.569 697.249 396.533C699.96 394.5 703.032 393.595 706.465 393.819C706.742 393.833 707.019 393.847 707.296 393.86C707.573 393.874 707.849 393.915 708.124 393.984C708.401 393.998 708.676 394.039 708.951 394.108C709.225 394.177 709.5 394.246 709.774 394.315C712.678 395.125 714.83 396.564 716.228 398.632C717.627 400.701 718.266 402.954 718.146 405.393C718.078 406.778 717.762 408.124 717.198 409.429C716.689 410.738 715.932 412.006 714.928 413.234Z" fill="black"/>
<path d="M91.5683 159.05C92.9262 164.651 97.3269 167.445 102.797 166.119C105.923 165.361 108.504 158.943 111.63 158.185C128.301 154.143 158.667 171.327 114.385 182.063L109.436 183.263C108.003 183.611 107.83 185.169 108.887 187.257L118.4 207.153L121.135 206.489L120.578 197.937L125.397 196.768C145.194 191.969 145.414 179.228 144.163 172.361C139.379 145.804 121.342 136.249 100.633 141.27C92.9492 143.133 89.6105 150.975 91.5683 159.05ZM127.573 238.162C134.476 236.488 137.929 230.825 136.161 223.531C134.424 216.368 128.76 212.915 121.857 214.588C114.824 216.293 111.501 221.925 113.238 229.089C115.006 236.382 120.54 239.867 127.573 238.162Z" fill="black"/>
</svg>
