<svg width="390" height="1032" viewBox="0 0 390 1032" fill="none" xmlns="http://www.w3.org/2000/svg">
<path d="M292.039 108.322L292.049 108.274L292.058 108.225C292.804 103.81 291.704 99.5136 289.339 96.4247C286.953 93.3089 283.171 91.3405 278.858 92.1057L278.849 92.1072L278.841 92.1087L113.363 122.505L113.331 122.511L113.299 122.518C109.656 123.278 106.853 125.885 105.27 129.007C103.687 132.127 103.189 135.994 104.341 139.68L125.326 215.994L125.337 216.034L125.349 216.073C126.868 221.014 131.19 225.045 136.422 225.045H258.964C264.692 225.045 268.983 220.411 270.104 214.696C270.105 214.691 270.106 214.686 270.107 214.681L292.039 108.322Z" fill="#D9D9D9" stroke="#7D7E34" stroke-width="5.46388"/>
<path d="M137.901 220.164H257.5C261.477 220.164 264.841 216.955 265.759 212.321L287.171 109.999C288.394 102.868 283.5 96.4509 277.382 97.5205L115.878 126.755C110.678 127.825 107.313 134.242 109.149 139.947L129.643 213.39C130.866 217.312 134.231 220.164 137.901 220.164Z" fill="#6EA5A0"/>
<path d="M135.012 207.756C137.211 207.756 141.073 203.878 143.153 200.346C142.083 202.216 141.608 203.047 141.43 204.224C141.192 205.955 143.331 207.756 145.173 207.756C147.787 207.756 150.461 203.185 153.729 199.237C153.432 198.545 153.076 198.476 152.6 199.03C150.521 201.454 148.025 204.085 146.48 205.055C145.411 205.748 145.173 205.263 145.351 204.224C146.064 199.237 155.215 187.741 157.176 186.01C156.344 184.832 153.313 183.516 151.887 185.317L151.471 185.94C151.055 184.486 148.203 183.239 147.253 183.239C143.034 183.239 132.339 197.506 131.447 203.67C131.15 205.748 133.527 207.756 135.012 207.756ZM135.547 205.055C135.131 205.055 135.191 204.778 135.25 204.501C135.725 201.315 144.638 188.988 146.837 187.325C148.084 186.287 150.521 186.494 150.342 187.533C145.173 194.874 137.33 205.055 135.547 205.055Z" fill="#2D2D2B"/>
<path d="M164.421 207.756C168.224 207.756 169.71 203.185 172.978 199.237C172.681 198.545 172.324 198.476 171.849 199.03C169.71 201.384 166.204 205.055 165.194 205.055C164.718 205.055 164.481 204.709 164.6 203.878C165.313 199.376 174.107 190.65 174.107 187.672C174.107 185.802 171.611 183.447 170.244 183.447C168.878 183.447 164.481 188.988 160.619 193.489C162.936 190.026 164.956 187.118 165.431 185.802C165.907 184.417 164.065 182.893 162.045 183.863C160.856 188.226 150.042 201.454 150.042 203.878C149.983 205.748 151.884 207.41 153.548 207.41C153.548 204.432 167.749 185.94 170.304 185.94C170.601 185.94 170.72 186.079 170.601 186.494C170.423 188.018 160.024 198.337 160.024 202.839C160.024 204.57 162.579 207.756 164.421 207.756Z" fill="#2D2D2B"/>
<path d="M163.789 231.58C170.8 231.58 179.951 208.379 195.756 184.971C195.518 183.309 192.25 180.608 190.824 182.685C188.21 188.78 178.584 203.878 174.425 203.878C174.127 203.878 174.127 203.739 174.127 203.324C174.127 200.276 185.061 188.849 185.061 185.594C185.061 183.863 183.397 181.785 181.258 182.339C180.545 186.841 170.384 197.922 170.384 202.146C170.384 204.016 173.474 207.063 174.841 207.063C175.732 207.063 178.643 204.57 181.079 201.661C179.297 204.501 177.514 207.41 175.732 210.18C175.494 209.903 175.019 209.764 174.306 209.764C165.809 210.665 158.916 219.183 157.669 223.685C156.658 227.355 161.531 231.58 163.789 231.58ZM162.66 227.494C161.947 227.494 162.066 226.386 162.184 225.901C163.194 221.676 169.433 212.812 174.781 211.565C168.661 221.053 164.68 227.494 162.66 227.494Z" fill="#2D2D2B"/>
<path d="M195.248 207.617C198.16 207.617 204.874 198.96 204.874 197.991C204.874 197.368 204.22 196.883 203.923 197.16C200.001 201.731 196.496 203.67 195.129 203.67C194.297 203.67 194 203.185 194 202.216C194 199.722 200.655 191.689 204.993 185.525C206.478 185.317 207.132 185.178 208.261 185.386C208.855 184.832 209.39 183.447 208.974 183.239C208.498 183.032 207.726 182.962 206.775 182.962C208.795 179.915 209.627 178.738 209.627 177.353C209.627 176.383 208.32 174.375 206.062 174.721C205.527 177.353 204.517 179.292 202.497 182.547C201.546 182.339 200.536 181.993 199.467 181.508C198.1 182.27 196.971 184.486 198.1 185.871C198.338 186.217 199.11 186.287 200.061 186.217C196.377 191.55 189.722 197.021 189.603 200.069C189.484 203.878 193.406 207.617 195.248 207.617Z" fill="#2D2D2B"/>
<path d="M216.615 182.339C217.862 182.339 219.467 181.3 219.764 179.43C220.001 177.768 219.051 176.66 217.744 176.66C215.664 176.66 214.773 177.907 214.535 179.43C214.238 181.231 215.604 182.339 216.615 182.339ZM204.671 207.617C207.702 207.617 213.762 201.938 216.258 197.714L215.248 196.744C212.634 199.93 207.88 204.778 205.741 204.778C205.384 204.778 205.325 204.501 205.266 203.878C205.206 200.692 216.199 189.957 216.199 186.841C216.199 183.724 214 182.893 211.802 183.586C211.267 188.226 201.106 199.376 201.106 202.285C201.106 204.57 203.542 207.617 204.671 207.617Z" fill="#2D2D2B"/>
<path d="M235.392 207.756C238.006 207.756 240.68 203.185 242.76 199.237C242.463 198.545 242.047 198.406 241.631 199.03C239.432 202.146 235.986 205.055 234.976 205.055C234.5 205.055 234.263 204.709 234.382 203.878C235.095 199.376 243.889 190.442 243.889 187.672C243.889 185.94 241.393 183.447 240.026 183.447C238.897 183.447 235.511 187.325 232.361 191.135C233.431 189.403 234.263 187.949 234.382 186.979C234.5 185.802 232.48 183.447 231.114 183.447C229.985 183.447 226.301 187.325 222.914 191.204C224.578 188.78 225.944 186.841 226.301 185.802C226.776 184.417 224.934 182.893 222.914 183.863C219.884 190.234 210.911 199.653 210.911 203.185C210.911 205.748 212.219 207.825 214.417 207.41C217.923 198.753 229.747 185.94 231.114 185.94C231.411 185.94 231.53 186.079 231.411 186.494C231.232 188.018 220.299 199.376 220.299 203.601C220.299 205.471 222.439 207.41 224.34 206.856C227.786 198.199 238.719 185.94 240.086 185.94C240.383 185.94 240.502 186.079 240.383 186.494C240.205 188.018 229.747 198.476 229.747 202.146C229.747 205.263 232.956 207.756 235.392 207.756Z" fill="#2D2D2B"/>
<path d="M244.853 207.756C248.418 207.756 255.667 201.8 259.292 197.437C259.767 196.675 259.114 196.467 258.579 196.329C254.717 200.9 247.705 204.986 244.794 204.986C243.487 204.986 243.546 202.7 244.318 201.177C244.616 201.661 245.15 202.008 245.685 202.008C250.26 202.008 259.292 192.45 260.005 187.533C260.302 185.456 257.925 182.893 256.38 182.893C250.676 182.893 240.1 194.874 240.1 201.938C240.1 204.362 242.417 207.756 244.853 207.756ZM245.032 199.722C248.3 193.697 254.717 185.317 257.212 185.317C257.569 185.317 257.569 185.663 257.509 185.94C257.034 189.057 249.191 197.298 245.032 199.722Z" fill="#2D2D2B"/>
<path d="M150.736 177.003H153.839V152.548L169.057 150.482L176.149 74.8794L153.839 72.8128V57.3135H150.736V72.4684L128.721 70.4018L135.961 154.959L150.736 152.893V177.003Z" fill="black"/>
<path d="M189.098 180.539H192.594V160.562L216.901 159.701L208.078 81.6881L192.594 76.5217V60.8501H189.098V75.3162L175.779 70.6664L165.956 161.768L189.098 160.735V180.539Z" fill="black"/>
<path d="M225.64 177.003H228.743V152.376L245.586 153.409L249.28 73.8461L228.743 72.8128V57.3135H225.64V72.8128L206.728 71.9517L214.558 151.343L225.64 152.204V177.003Z" fill="black"/>
<path d="M155.696 133.731H171.488V130.417L168.137 130.653L156.559 88.9868H143.103L143.408 93.4257L149.552 92.5379L140.209 129.292L135.994 128.996V132.251H149.197V128.996L144.423 129.292L146.962 118.402H155.899L158.743 130.594L155.696 130.417V133.731ZM147.826 114.673L151.431 99.4035L154.985 114.673H147.826Z" fill="#E6A311"/>
<path d="M232.733 125.459H248.525V122.144L245.174 122.381L233.597 80.7144H220.14L220.445 85.1533L226.589 84.2655L217.246 121.02L213.031 120.724V123.979H226.234V120.724L221.46 121.02L223.999 110.13H232.936L235.78 122.322L232.733 122.144V125.459ZM224.863 106.401L228.468 91.131L232.022 106.401H224.863Z" fill="#E6A311"/>
<path d="M171.088 141.567H188.149V138.075L182.868 138.549L183.529 113.809L189.368 134.169L194.852 134.051L201.149 113.336V137.898L196.325 137.484V140.975H213.386V137.484L208.207 137.898L210.289 103.689L214.859 104.044V100.552H197.137V104.044L201.098 103.689L200.996 103.925L192.212 123.871L183.833 102.623V102.091L187.489 102.446V98.8945H170.123V102.446L174.135 102.091L175.912 138.549L171.088 138.075V141.567Z" fill="#E6A311"/>
<path d="M274.362 74.7742C274.479 73.1811 274.567 71.626 274.626 70.0708C274.685 69.2743 274.714 68.5157 274.743 67.7191C274.773 67.264 274.773 66.8088 274.773 66.3915L277.119 68.0605L277.735 68.5157L278.967 69.3501L278.997 69.3122C278.615 68.9329 278.263 68.5536 277.911 68.1743C277.735 67.9846 277.53 67.795 277.354 67.6433L276.826 67.0743C276.21 66.4674 275.623 65.8605 275.007 65.2916C275.213 65.026 275.418 64.7605 275.623 64.4571L276.503 63.0916C277.09 62.1812 277.706 61.2709 278.293 60.3226H278.263C277.53 61.0433 276.826 61.8399 276.122 62.5985C275.77 62.9778 275.418 63.3571 275.066 63.7743L274.773 64.1157C274.743 62.9778 274.685 61.8399 274.626 60.664L274.567 59.5261C274.538 59.1089 274.538 58.7295 274.509 58.3502C274.479 57.5537 274.421 56.7571 274.362 55.9985H274.333C274.303 56.7571 274.245 57.5537 274.215 58.3502C274.186 58.7295 274.157 59.1089 274.157 59.5261L274.098 60.664C274.039 61.9157 273.981 63.1295 273.951 64.3812L273.423 63.964L272.191 63.0916C271.399 62.5226 270.578 61.9537 269.757 61.4226C270.461 62.1812 271.165 62.9399 271.898 63.6985C272.279 64.0398 272.631 64.4192 272.983 64.7985C273.218 65.026 273.453 65.2536 273.687 65.4433C273.189 66.164 272.719 66.9226 272.221 67.6812L271.751 68.3639L270.431 70.4122L270.461 70.4501L271.517 69.3122L272.074 68.7433L272.602 68.1364L273.951 66.6571C273.951 66.9984 273.951 67.3777 273.981 67.7191C274.01 68.5157 274.039 69.2743 274.098 70.0708C274.157 71.626 274.245 73.1811 274.362 74.7742Z" fill="#D04D2A"/>
<path d="M265.109 95.4643C265.294 92.9508 265.433 90.4971 265.525 88.0434C265.618 86.7866 265.664 85.5897 265.711 84.3329C265.757 83.6147 265.757 82.8966 265.757 82.2383L269.459 84.8715L270.431 85.5897L272.375 86.9063L272.421 86.8465C271.82 86.248 271.264 85.6495 270.709 85.0511C270.431 84.7518 270.107 84.4526 269.83 84.2132L268.997 83.3155C268.025 82.358 267.099 81.4004 266.127 80.5027C266.451 80.0838 266.775 79.6649 267.099 79.1861L268.487 77.0316C269.413 75.5953 270.385 74.159 271.311 72.6628H271.264C270.107 73.7999 268.997 75.0567 267.886 76.2536C267.33 76.8521 266.775 77.4506 266.22 78.1089L265.757 78.6475C265.711 76.8521 265.618 75.0567 265.525 73.2015L265.433 71.4061C265.387 70.7477 265.387 70.1493 265.34 69.5508C265.294 68.294 265.201 67.0373 265.109 65.8403H265.063C265.016 67.0373 264.924 68.294 264.878 69.5508C264.831 70.1493 264.785 70.7477 264.785 71.4061L264.692 73.2015C264.6 75.1764 264.507 77.0915 264.461 79.0664L263.628 78.4081L261.684 77.0316C260.435 76.1339 259.139 75.2362 257.843 74.3984C258.954 75.5953 260.064 76.7922 261.221 77.9892C261.823 78.5278 262.378 79.1263 262.934 79.7247C263.304 80.0838 263.674 80.4429 264.044 80.7421C263.258 81.8792 262.517 83.0761 261.73 84.2731L260.99 85.3503L258.907 88.582L258.954 88.6418L260.62 86.8465L261.499 85.9488L262.332 84.9912L264.461 82.6572C264.461 83.1958 264.461 83.7943 264.507 84.3329C264.554 85.5897 264.6 86.7866 264.692 88.0434C264.785 90.4971 264.924 92.9508 265.109 95.4643Z" fill="#D04D2A"/>
<path d="M126.653 72.6274C126.782 70.8772 126.879 69.1686 126.943 67.4601C127.008 66.585 127.04 65.7516 127.072 64.8765C127.104 64.3764 127.104 63.8764 127.104 63.418L129.682 65.2515L130.359 65.7516L131.713 66.6684L131.745 66.6267C131.326 66.21 130.939 65.7933 130.553 65.3765C130.359 65.1682 130.134 64.9598 129.94 64.7931L129.36 64.1681C128.683 63.5013 128.039 62.8346 127.362 62.2095C127.588 61.9178 127.813 61.6261 128.039 61.2927L129.006 59.7926C129.65 58.7924 130.327 57.7923 130.971 56.7505H130.939C130.134 57.5423 129.36 58.4174 128.587 59.2508C128.2 59.6675 127.813 60.0843 127.427 60.5426L127.104 60.9177C127.072 59.6675 127.008 58.4174 126.943 57.1256L126.879 55.8754C126.847 55.4171 126.847 55.0003 126.814 54.5836C126.782 53.7085 126.718 52.8334 126.653 52H126.621C126.589 52.8334 126.524 53.7085 126.492 54.5836C126.46 55.0003 126.428 55.4171 126.428 55.8754L126.363 57.1256C126.299 58.5007 126.234 59.8342 126.202 61.2094L125.622 60.751L124.268 59.7926C123.398 59.1675 122.496 58.5424 121.594 57.959C122.367 58.7924 123.141 59.6259 123.946 60.4593C124.365 60.8343 124.752 61.2511 125.139 61.6678C125.396 61.9178 125.654 62.1678 125.912 62.3762C125.364 63.1679 124.849 64.0014 124.301 64.8348L123.785 65.5849L122.335 67.8351L122.367 67.8768L123.527 66.6267L124.14 66.0016L124.72 65.3349L126.202 63.7097C126.202 64.0847 126.202 64.5014 126.234 64.8765C126.266 65.7516 126.299 66.585 126.363 67.4601C126.428 69.1686 126.524 70.8772 126.653 72.6274Z" fill="#D04D2A"/>
<path d="M116.489 95.3585C116.692 92.5971 116.845 89.9014 116.946 87.2057C117.048 85.825 117.099 84.51 117.15 83.1293C117.2 82.3403 117.2 81.5513 117.2 80.8281L121.268 83.721L122.336 84.51L124.471 85.9565L124.522 85.8907C123.861 85.2333 123.251 84.5758 122.641 83.9183C122.336 83.5895 121.98 83.2608 121.675 82.9978L120.76 82.0116C119.692 80.9596 118.675 79.9076 117.607 78.9214C117.963 78.4612 118.319 78.0009 118.675 77.4749L120.2 75.108C121.217 73.53 122.285 71.952 123.302 70.3083H123.251C121.98 71.5576 120.76 72.9383 119.539 74.2532C118.929 74.9107 118.319 75.5682 117.709 76.2915L117.2 76.8832C117.15 74.9107 117.048 72.9383 116.946 70.9001L116.845 68.9276C116.794 68.2044 116.794 67.5469 116.743 66.8894C116.692 65.5087 116.59 64.128 116.489 62.813H116.438C116.387 64.128 116.285 65.5087 116.234 66.8894C116.184 67.5469 116.133 68.2044 116.133 68.9276L116.031 70.9001C115.929 73.0698 115.828 75.1737 115.777 77.3434L114.862 76.6202L112.726 75.108C111.353 74.1217 109.93 73.1355 108.506 72.215C109.726 73.53 110.946 74.845 112.218 76.16C112.879 76.7517 113.489 77.4092 114.099 78.0667C114.506 78.4612 114.912 78.8556 115.319 79.1844C114.455 80.4336 113.641 81.7486 112.777 83.0636L111.963 84.247L109.675 87.7975L109.726 87.8632L111.557 85.8907L112.523 84.9045L113.438 83.8525L115.777 81.2883C115.777 81.8801 115.777 82.5376 115.828 83.1293C115.878 84.51 115.929 85.825 116.031 87.2057C116.133 89.9014 116.285 92.5971 116.489 95.3585Z" fill="#D04D2A"/>
<path d="M33.0851 772.377C33.342 769.679 33.5347 767.045 33.6632 764.412C33.7917 763.063 33.8559 761.778 33.9202 760.429C33.9844 759.658 33.9844 758.887 33.9844 758.181L39.1233 761.007L40.4722 761.778L43.1702 763.191L43.2344 763.127C42.3993 762.485 41.6285 761.842 40.8577 761.2C40.4722 760.879 40.0226 760.558 39.6372 760.301L38.4809 759.337C37.132 758.309 35.8472 757.281 34.4983 756.318C34.9479 755.868 35.3976 755.419 35.8472 754.905L37.7743 752.592C39.0591 751.051 40.408 749.509 41.6927 747.903H41.6285C40.0226 749.123 38.4809 750.472 36.9393 751.757C36.1684 752.4 35.3976 753.042 34.6268 753.749L33.9844 754.327C33.9202 752.4 33.7917 750.472 33.6632 748.481L33.5347 746.554C33.4705 745.847 33.4705 745.205 33.4063 744.563C33.342 743.214 33.2136 741.865 33.0851 740.58H33.0208C32.9566 741.865 32.8281 743.214 32.7639 744.563C32.6997 745.205 32.6354 745.847 32.6354 746.554L32.507 748.481C32.3785 750.601 32.25 752.656 32.1858 754.776L31.0295 754.07L28.3316 752.592C26.5972 751.629 24.7986 750.665 23 749.766C24.5417 751.051 26.0833 752.335 27.6892 753.62C28.5243 754.198 29.2951 754.841 30.066 755.483C30.5799 755.868 31.0938 756.254 31.6077 756.575C30.5156 757.795 29.4879 759.08 28.3958 760.365L27.3681 761.521L24.4774 764.99L24.5417 765.054L26.8542 763.127L28.0747 762.163L29.2309 761.136L32.1858 758.63C32.1858 759.209 32.1858 759.851 32.25 760.429C32.3142 761.778 32.3785 763.063 32.507 764.412C32.6354 767.045 32.8281 769.679 33.0851 772.377Z" fill="#D04D2A"/>
<path d="M298.028 286.542L304.426 270.416C289.065 264.72 273.745 255.631 279.292 246.593C288.852 231.174 343.731 218.882 358.228 228.043C372.277 236.826 337.08 274.222 329.471 276.01C326.972 276.598 319.09 275.187 310.404 272.394L298.028 286.542Z" fill="white"/>
<path d="M324.834 257.679C324.802 258.336 324.55 258.878 324.078 259.305C323.607 259.733 323.043 259.93 322.386 259.898C321.729 259.866 321.169 259.613 320.708 259.14C320.28 258.668 320.083 258.104 320.115 257.447C320.147 256.79 320.399 256.248 320.871 255.821C321.378 255.361 321.961 255.147 322.618 255.179C323.275 255.211 323.816 255.48 324.241 255.987C324.669 256.458 324.866 257.022 324.834 257.679ZM331.101 242.288C330.733 242.72 330.315 243.116 329.847 243.474C329.413 243.834 328.962 244.193 328.494 244.551C328.494 244.551 328.476 244.567 328.44 244.6C328.403 244.633 328.385 244.65 328.385 244.65C327.703 245.136 327.053 245.659 326.437 246.217C325.822 246.742 325.322 247.393 324.937 248.171C324.82 248.443 324.703 248.714 324.585 248.986C324.504 249.224 324.422 249.48 324.34 249.753C324.176 250.265 324.047 250.779 323.952 251.294C323.892 251.811 323.83 252.362 323.767 252.948L321.744 252.849C321.885 251.4 322.122 250.095 322.457 248.933C322.827 247.738 323.317 246.584 323.926 245.47C324.194 244.964 324.496 244.459 324.833 243.955C325.171 243.417 325.544 242.881 325.951 242.347C326.027 242.212 326.12 242.078 326.231 241.945C326.341 241.811 326.435 241.677 326.511 241.542C326.847 241.039 327.169 240.483 327.476 239.874C327.783 239.266 328.021 238.654 328.19 238.038C328.271 237.799 328.335 237.56 328.382 237.32C328.43 237.045 328.46 236.786 328.472 236.544C328.495 236.06 328.448 235.608 328.33 235.186C328.212 234.764 328.024 234.374 327.764 234.014C327.243 233.33 326.678 232.835 326.07 232.528C325.463 232.186 324.831 231.999 324.174 231.967C322.997 231.943 321.903 232.34 320.892 233.157C319.884 233.939 319.243 234.982 318.971 236.286C319.184 236.192 319.395 236.133 319.604 236.109C319.815 236.05 320.006 236.025 320.179 236.033C320.871 236.067 321.446 236.355 321.904 236.898C322.397 237.442 322.627 238.059 322.593 238.751C322.578 239.062 322.493 239.37 322.34 239.674C322.222 239.946 322.019 240.213 321.728 240.476C321.475 240.706 321.189 240.865 320.873 240.954C320.557 241.042 320.226 241.078 319.88 241.061C319.362 241.035 318.884 240.873 318.449 240.575C318.013 240.276 317.738 239.864 317.626 239.339C317.508 238.917 317.424 238.514 317.373 238.13C317.359 237.714 317.36 237.333 317.377 236.987C317.517 234.845 318.415 233.139 320.072 231.869C321.763 230.601 323.68 230.036 325.821 230.176C325.994 230.185 326.167 230.193 326.34 230.202C326.513 230.21 326.685 230.236 326.856 230.279C327.029 230.287 327.201 230.313 327.372 230.356C327.543 230.399 327.714 230.442 327.886 230.485C329.698 230.99 331.04 231.888 331.912 233.178C332.784 234.469 333.183 235.875 333.108 237.396C333.066 238.26 332.869 239.1 332.517 239.914C332.199 240.73 331.727 241.522 331.101 242.288Z" fill="black"/>
<path d="M37.8579 80.0074C38.7049 83.5011 41.4503 85.2442 44.8628 84.4168C46.8127 83.944 48.4229 79.9406 50.3728 79.4678C60.7728 76.9463 79.7167 87.6658 52.0919 94.3636L49.0044 95.1122C48.1106 95.3289 48.0023 96.3014 48.6622 97.6039L54.5963 110.015L56.3025 109.602L55.9552 104.266L58.9615 103.537C71.3114 100.543 71.449 92.5952 70.6684 88.3112C67.6838 71.7436 56.4317 65.7831 43.513 68.9153C38.7193 70.0776 36.6365 74.9699 37.8579 80.0074ZM60.3189 129.36C64.6251 128.316 66.7793 124.783 65.6762 120.233C64.5927 115.764 61.0595 113.61 56.7533 114.654C52.3658 115.718 50.2928 119.231 51.3762 123.7C52.4794 128.25 55.9314 130.424 60.3189 129.36Z" fill="black"/>
<path d="M46.5387 326.69C47.1129 320.292 47.5436 314.046 47.8307 307.801C48.1178 304.602 48.2614 301.555 48.405 298.356C48.5485 296.528 48.5485 294.7 48.5485 293.025L60.0332 299.727L63.0479 301.555L69.0774 304.906L69.2209 304.754C67.3547 303.231 65.632 301.707 63.9093 300.184C63.0479 299.422 62.043 298.661 61.1817 298.051L58.5976 295.767C55.5829 293.329 52.7117 290.892 49.697 288.607C50.7019 287.541 51.7068 286.474 52.7117 285.256L57.0185 279.772C59.8896 276.116 62.9044 272.46 65.7755 268.652H65.632C62.043 271.546 58.5976 274.745 55.1522 277.792C53.4295 279.315 51.7068 280.838 49.9841 282.514L48.5485 283.885C48.405 279.315 48.1178 274.745 47.8307 270.023L47.5436 265.453C47.4 263.777 47.4 262.254 47.2565 260.731C47.1129 257.532 46.8258 254.333 46.5387 251.286H46.3951C46.2516 254.333 45.9645 257.532 45.8209 260.731C45.6773 262.254 45.5338 263.777 45.5338 265.453L45.2467 270.023C44.9595 275.05 44.6724 279.924 44.5289 284.951L41.9448 283.275L35.9154 279.772C32.0393 277.487 28.0196 275.202 24 273.069C27.4454 276.116 30.8908 279.163 34.4798 282.209C36.346 283.58 38.0687 285.103 39.7914 286.627C40.9399 287.541 42.0884 288.455 43.2368 289.216C40.7964 292.111 38.4994 295.157 36.0589 298.204L33.762 300.946L27.3018 309.172L27.4454 309.324L32.6135 304.754L35.3411 302.469L37.9252 300.032L44.5289 294.091C44.5289 295.462 44.5289 296.985 44.6724 298.356C44.816 301.555 44.9595 304.602 45.2467 307.801C45.5338 314.046 45.9645 320.292 46.5387 326.69Z" fill="#6EA5A0"/>
</svg>
