<svg width="1440" height="1024" viewBox="0 0 1440 1024" fill="none" xmlns="http://www.w3.org/2000/svg">
<path d="M554.858 38.0075C555.705 41.5012 558.45 43.2443 561.863 42.4169C563.813 41.9441 565.423 37.9407 567.373 37.4679C577.773 34.9464 596.717 45.6659 569.092 52.3637L566.004 53.1123C565.111 53.329 565.002 54.3015 565.662 55.604L571.596 68.0154L573.303 67.6017L572.955 62.2663L575.961 61.5374C588.311 58.5431 588.449 50.5953 587.668 46.3112C584.684 29.7437 573.432 23.7832 560.513 26.9154C555.719 28.0777 553.636 32.97 554.858 38.0075ZM577.319 87.3601C581.625 86.3161 583.779 82.7828 582.676 78.2329C581.593 73.7641 578.059 71.6099 573.753 72.654C569.366 73.7177 567.293 77.2312 568.376 81.7C569.479 86.2499 572.931 88.4239 577.319 87.3601Z" fill="black"/>
<path d="M1320.94 245.018C1320.69 246.883 1319.8 248.19 1318.27 248.94C1316.81 249.619 1315.3 249.733 1313.74 249.281C1312.26 248.833 1310.92 248.016 1309.7 246.83C1308.56 245.573 1308.11 244.087 1308.34 242.372C1308.59 240.432 1309.36 239.119 1310.67 238.433C1312.06 237.675 1313.61 237.451 1315.32 237.76C1317.03 238.22 1318.45 239.115 1319.58 240.447C1320.72 241.779 1321.17 243.303 1320.94 245.018ZM1317.67 226.728C1317.1 227.675 1316.43 228.318 1315.66 228.656C1314.89 228.993 1314.21 229.073 1313.62 228.893C1313.1 228.718 1312.71 228.323 1312.44 227.709C1312.24 227.099 1312.43 226.283 1313.01 225.26C1313.83 223.799 1315.02 222.544 1316.57 221.494C1318.13 220.444 1319.78 219.55 1321.55 218.811C1323.39 218 1325.26 217.267 1327.17 216.61C1329.08 215.953 1330.81 215.212 1332.35 214.387C1333.97 213.565 1335.29 212.617 1336.32 211.541C1337.35 210.466 1337.9 209.142 1337.98 207.569C1338.1 205.097 1337.26 203.067 1335.46 201.477C1333.66 199.887 1331.44 198.614 1328.78 197.658C1326.12 196.702 1323.31 196 1320.33 195.554C1317.42 195.111 1314.92 194.838 1312.82 194.735C1311.32 194.661 1309.71 194.657 1307.98 194.722C1306.33 194.716 1304.75 194.826 1303.23 195.052C1301.72 195.278 1300.46 195.666 1299.46 196.218C1298.46 196.694 1297.94 197.419 1297.89 198.393C1297.86 198.917 1298.14 199.343 1298.73 199.672C1299.39 200.005 1300.08 200.34 1300.82 200.676C1301.63 200.941 1302.33 201.276 1302.91 201.68C1303.57 202.012 1303.88 202.478 1303.85 203.077C1303.84 203.377 1303.64 203.63 1303.25 203.836C1302.95 203.971 1302.6 204.104 1302.22 204.236C1301.84 204.367 1301.42 204.459 1300.97 204.512C1300.59 204.568 1300.36 204.595 1300.29 204.591C1298.12 204.484 1296.24 203.792 1294.65 202.512C1293.06 201.233 1292.32 199.508 1292.42 197.336C1292.54 194.939 1293.42 193.031 1295.07 191.61C1296.72 190.115 1298.65 188.971 1300.87 188.179C1303.08 187.387 1305.36 186.898 1307.7 186.713C1310.11 186.456 1312.07 186.365 1313.57 186.438C1315.51 186.534 1317.72 186.792 1320.17 187.213C1322.63 187.559 1325.12 188.094 1327.64 188.819C1330.15 189.543 1332.55 190.486 1334.82 191.649C1337.17 192.74 1339.13 194.075 1340.7 195.654C1342.35 197.161 1343.51 198.945 1344.16 201.003C1344.88 203.066 1344.92 205.357 1344.27 207.878C1343.72 209.803 1342.78 211.483 1341.43 212.918C1340.08 214.354 1338.52 215.628 1336.74 216.742C1334.96 217.78 1333.07 218.739 1331.08 219.617C1329.09 220.42 1327.17 221.189 1325.34 221.924C1323.57 222.664 1322 223.412 1320.61 224.17C1319.22 224.927 1318.24 225.78 1317.67 226.728Z" fill="black"/>
<path d="M1250.14 595.551C1267.62 596.982 1284.74 604.548 1298.13 612.533C1287.83 613.99 1277.48 617.451 1267.99 623.512C1231.73 646.667 1222.48 697.054 1247.48 736.2C1272.48 775.346 1322.26 788.431 1358.52 765.277C1394.78 742.122 1403.85 691.455 1378.85 652.309C1340.1 591.633 1279.18 577.003 1250.14 595.551Z" fill="white"/>
<path d="M1345.57 667.81C1345.69 670.509 1345.27 672.866 1344.31 674.881C1343.35 676.896 1342.03 678.583 1340.35 679.944C1338.67 681.304 1336.7 682.334 1334.44 683.034C1332.23 683.731 1329.91 684.136 1327.48 684.247C1327.12 684.264 1326.8 684.278 1326.52 684.291C1326.25 684.304 1325.95 684.294 1325.63 684.263L1321.66 695.033L1313.18 693.222L1314.61 676.451C1316.11 676.978 1317.52 677.44 1318.87 677.836C1320.26 678.185 1321.74 678.323 1323.29 678.252C1324.75 678.185 1326.16 677.891 1327.51 677.371C1328.86 676.805 1330.04 676.063 1331.05 675.146C1332.11 674.18 1332.93 673.066 1333.51 671.801C1334.09 670.491 1334.35 669.059 1334.28 667.504C1334.2 665.72 1333.64 664.164 1332.62 662.836C1331.64 661.46 1330.42 660.325 1328.96 659.43C1327.49 658.488 1325.9 657.805 1324.19 657.38C1322.47 656.954 1320.84 656.777 1319.28 656.849C1317.18 656.945 1315.39 657.371 1313.91 658.127C1312.48 658.834 1311.19 659.787 1310.05 660.985C1308.96 662.135 1307.97 663.464 1307.07 664.972C1306.18 666.434 1305.24 667.944 1304.26 669.501L1308.27 646.011L1312.63 652.754C1314.17 652.317 1315.74 652.016 1317.33 651.851C1318.98 651.684 1320.6 651.564 1322.2 651.49C1324.81 651.37 1327.45 651.593 1330.14 652.157C1332.86 652.673 1335.34 653.591 1337.55 654.91C1339.81 656.227 1341.68 657.952 1343.15 660.084C1344.62 662.171 1345.43 664.746 1345.57 667.81ZM1322.74 703.783C1322.79 704.698 1322.62 705.508 1322.24 706.213C1321.86 706.918 1321.33 707.514 1320.67 708.003C1320.05 708.49 1319.33 708.844 1318.52 709.065C1317.71 709.331 1316.89 709.483 1316.06 709.521C1315.2 709.561 1314.25 709.467 1313.23 709.239C1312.21 709.01 1311.26 708.665 1310.37 708.202C1309.47 707.738 1308.71 707.132 1308.08 706.381C1307.5 705.629 1307.18 704.75 1307.14 703.744C1307.09 702.783 1307.26 701.95 1307.64 701.246C1308.02 700.541 1308.54 699.944 1309.21 699.455C1309.87 698.92 1310.61 698.52 1311.42 698.253C1312.23 697.987 1313.05 697.835 1313.88 697.797C1314.84 697.753 1315.83 697.845 1316.84 698.073C1317.86 698.255 1318.79 698.602 1319.64 699.113C1320.49 699.578 1321.21 700.21 1321.79 701.008C1322.38 701.76 1322.69 702.685 1322.74 703.783Z" fill="black"/>
<path d="M1293.75 695.116C1293.91 697.357 1293.62 699.327 1292.87 701.025C1292.12 702.723 1291.06 704.158 1289.69 705.329C1288.33 706.499 1286.72 707.402 1284.85 708.037C1283.03 708.669 1281.11 709.059 1279.1 709.209C1278.79 709.231 1278.53 709.251 1278.3 709.268C1278.07 709.285 1277.82 709.284 1277.55 709.266L1274.5 718.316L1267.41 717.008L1268.21 703.027C1269.46 703.43 1270.65 703.781 1271.78 704.079C1272.95 704.337 1274.18 704.417 1275.47 704.322C1276.68 704.231 1277.85 703.954 1278.96 703.49C1280.07 702.987 1281.03 702.343 1281.85 701.556C1282.71 700.729 1283.36 699.783 1283.82 698.717C1284.27 697.614 1284.45 696.417 1284.35 695.125C1284.24 693.644 1283.75 692.363 1282.86 691.283C1282.02 690.161 1280.98 689.246 1279.74 688.535C1278.5 687.787 1277.16 687.256 1275.72 686.942C1274.29 686.629 1272.92 686.52 1271.63 686.616C1269.89 686.745 1268.41 687.142 1267.19 687.804C1266.02 688.426 1264.97 689.249 1264.05 690.272C1263.17 691.254 1262.38 692.382 1261.67 693.657C1260.96 694.894 1260.21 696.172 1259.43 697.49L1262.22 677.861L1266.01 683.366C1267.27 682.967 1268.57 682.679 1269.9 682.505C1271.26 682.327 1272.6 682.189 1273.93 682.091C1276.1 681.93 1278.3 682.053 1280.55 682.459C1282.83 682.825 1284.91 683.53 1286.78 684.575C1288.69 685.618 1290.28 687.008 1291.56 688.747C1292.83 690.448 1293.56 692.571 1293.75 695.116ZM1275.61 725.567C1275.67 726.327 1275.55 727.004 1275.25 727.6C1274.95 728.195 1274.53 728.703 1273.98 729.125C1273.48 729.545 1272.89 729.856 1272.22 730.059C1271.55 730.299 1270.87 730.445 1270.19 730.496C1269.47 730.549 1268.68 730.493 1267.83 730.327C1266.98 730.161 1266.17 729.896 1265.42 729.532C1264.67 729.167 1264.02 728.681 1263.48 728.072C1262.97 727.46 1262.69 726.736 1262.63 725.9C1262.57 725.102 1262.69 724.406 1262.99 723.811C1263.29 723.215 1263.71 722.707 1264.25 722.285C1264.79 721.825 1265.4 721.474 1266.07 721.234C1266.73 720.993 1267.41 720.847 1268.1 720.796C1268.89 720.737 1269.72 720.791 1270.57 720.956C1271.42 721.084 1272.2 721.351 1272.92 721.756C1273.64 722.123 1274.25 722.632 1274.75 723.282C1275.26 723.894 1275.54 724.655 1275.61 725.567Z" fill="black"/>
<path d="M1372.78 694.398C1373.2 696.177 1373.21 697.795 1372.82 699.255C1372.44 700.714 1371.77 702.001 1370.82 703.114C1369.88 704.228 1368.7 705.158 1367.28 705.905C1365.9 706.645 1364.41 707.203 1362.81 707.58C1362.57 707.637 1362.36 707.686 1362.18 707.729C1361.99 707.771 1361.8 707.803 1361.58 707.822L1360.28 715.477L1354.42 715.33L1353.28 704.003C1354.34 704.168 1355.34 704.298 1356.28 704.393C1357.25 704.451 1358.25 704.36 1359.27 704.118C1360.24 703.891 1361.14 703.52 1361.97 703.006C1362.8 702.461 1363.49 701.821 1364.05 701.085C1364.63 700.311 1365.03 699.468 1365.26 698.555C1365.49 697.612 1365.48 696.628 1365.24 695.603C1364.96 694.428 1364.4 693.462 1363.55 692.707C1362.73 691.915 1361.77 691.313 1360.69 690.9C1359.6 690.457 1358.46 690.201 1357.27 690.132C1356.07 690.064 1354.96 690.15 1353.94 690.391C1352.55 690.718 1351.41 691.225 1350.53 691.911C1349.66 692.56 1348.93 693.354 1348.32 694.292C1347.74 695.193 1347.24 696.2 1346.84 697.314C1346.42 698.397 1345.99 699.518 1345.53 700.676L1345.26 684.562L1349.01 688.499C1349.97 688.017 1350.98 687.621 1352.02 687.312C1353.09 686.996 1354.15 686.714 1355.21 686.466C1356.93 686.061 1358.71 685.878 1360.57 685.919C1362.44 685.921 1364.2 686.223 1365.84 686.824C1367.51 687.417 1368.96 688.331 1370.21 689.564C1371.44 690.768 1372.3 692.379 1372.78 694.398ZM1362.09 721.157C1362.24 721.76 1362.23 722.319 1362.06 722.835C1361.9 723.351 1361.62 723.813 1361.24 724.221C1360.89 724.622 1360.46 724.946 1359.94 725.195C1359.44 725.473 1358.91 725.676 1358.37 725.804C1357.8 725.939 1357.16 725.994 1356.45 725.97C1355.75 725.945 1355.07 725.835 1354.42 725.638C1353.77 725.442 1353.19 725.133 1352.67 724.713C1352.19 724.286 1351.87 723.741 1351.72 723.078C1351.57 722.445 1351.57 721.87 1351.74 721.354C1351.9 720.838 1352.18 720.377 1352.56 719.969C1352.93 719.531 1353.37 719.172 1353.88 718.894C1354.39 718.615 1354.91 718.412 1355.45 718.284C1356.09 718.135 1356.76 718.073 1357.46 718.097C1358.16 718.092 1358.82 718.206 1359.45 718.44C1360.07 718.643 1360.63 718.974 1361.12 719.431C1361.6 719.858 1361.92 720.434 1362.09 721.157Z" fill="black"/>
<path d="M118.291 499.156C117.905 487.512 149.046 470.605 145.901 458.64C145.215 456.03 138.067 449.186 130.779 451.102C120.663 453.761 104.589 469.15 107.277 479.375C108.106 482.529 112.72 482.828 114.958 482.938C116.123 473.212 125.9 458.199 135.254 455.74C136.777 455.34 137.682 455.684 137.91 456.554C139.826 463.842 111.671 486.36 114.302 496.367C114.645 497.673 116.493 499.396 118.291 499.156ZM114.655 518.951C115.199 518.808 115.634 518.694 116.012 518.362C116.414 515.465 116.839 512.214 117.068 510.874C115.935 509.66 113.582 509.116 111.624 509.63C110.754 509.859 109.941 510.305 109.431 511.021C107.982 513.03 106.808 515.199 107.208 516.722C107.294 517.048 107.46 517.237 107.655 517.535C108.656 519.132 112.371 519.551 114.655 518.951Z" fill="black"/>
<path d="M298.372 704.509L270.231 679.448C294.767 653.525 315.934 621.064 296.326 608.918C262.683 588.29 143.401 617.631 123.913 649.435C104.935 680.073 210.029 718.464 226.65 714.558C232.108 713.275 246.163 702.904 260.452 689.075L298.372 704.509Z" fill="white"/>
<path d="M203.768 647.086C210.08 646.402 215.898 643.556 220.461 638.761L215.471 632.394C213.657 636.109 209.971 639.376 205.462 639.864C200.567 640.394 196.924 638.052 196.492 634.058C194.985 620.145 238.494 622.34 235.494 594.643C233.652 577.639 214.407 572.034 197.789 573.833C181.686 575.578 163.332 589.035 165.509 609.131C166.36 616.99 171.911 622.514 179.898 621.649C187.757 620.798 190.865 614.596 190.265 609.057C189.553 602.487 184.528 598.209 176.053 599.387C176.88 590.174 185.719 581.527 194.994 580.523C205.686 579.364 212.668 584.864 213.91 596.33C216.408 619.389 181.785 617.404 183.71 635.182C184.687 644.2 194.364 648.104 203.768 647.086ZM207.505 671.966C212.401 671.435 216.062 666.738 215.532 661.842C215.002 656.947 210.433 653.271 205.538 653.802C200.643 654.332 196.967 658.901 197.497 663.796C198.027 668.691 202.61 672.496 207.505 671.966Z" fill="black"/>
<path d="M1308.32 514L1321.14 484.002C1305.93 470.53 1293.26 453.286 1301.71 442.688C1317.48 422.569 1386.61 423.647 1401.53 442.688C1415.9 461.01 1363.24 505.019 1353.66 505.019C1350.71 505.019 1342.96 500.887 1334.23 494.6L1308.32 514Z" fill="white"/>
<path d="M116.067 302.412C100.945 300.97 87.8414 295.2 78.1735 289.226C87.714 288.449 97.8596 286.257 107.963 282.205C146.559 266.726 168.722 231.331 157.377 203.041C146.031 174.752 105.472 164.277 66.8764 179.755C28.2809 195.233 6.19841 230.831 17.5439 259.12C35.1293 302.97 85.1503 314.811 116.067 302.412Z" fill="white"/>
<path d="M1082.88 185.527L1096.74 150.596C1063.47 138.258 1030.28 118.57 1042.3 98.9927C1063.01 65.5924 1181.88 38.9649 1213.29 58.8097C1243.72 77.8358 1167.48 158.841 1150.99 162.715C1145.58 163.987 1128.51 160.931 1109.69 154.882L1082.88 185.527Z" fill="white"/>
<path d="M1140.95 123.007C1140.88 124.43 1140.33 125.604 1139.31 126.53C1138.29 127.456 1137.07 127.884 1135.65 127.814C1134.22 127.744 1133.01 127.196 1132.01 126.171C1131.09 125.15 1130.66 123.928 1130.73 122.505C1130.8 121.082 1131.34 119.908 1132.36 118.982C1133.46 117.985 1134.73 117.521 1136.15 117.591C1137.57 117.661 1138.74 118.244 1139.67 119.341C1140.59 120.362 1141.02 121.584 1140.95 123.007ZM1154.52 89.6668C1153.73 90.6036 1152.82 91.4599 1151.81 92.2359C1150.87 93.0155 1149.89 93.7933 1148.88 94.5693C1148.88 94.5693 1148.84 94.6049 1148.76 94.6761C1148.68 94.7473 1148.64 94.7829 1148.64 94.7829C1147.16 95.8364 1145.76 96.9684 1144.42 98.179C1143.09 99.3147 1142.01 100.725 1141.17 102.411C1140.92 102.999 1140.67 103.587 1140.41 104.175C1140.24 104.692 1140.06 105.246 1139.88 105.838C1139.52 106.947 1139.25 108.059 1139.04 109.175C1138.91 110.295 1138.78 111.489 1138.64 112.759L1134.26 112.544C1134.56 109.406 1135.08 106.578 1135.8 104.061C1136.6 101.473 1137.66 98.973 1138.98 96.5605C1139.56 95.4629 1140.22 94.369 1140.95 93.2788C1141.68 92.1136 1142.49 90.9522 1143.37 89.7944C1143.53 89.5022 1143.74 89.2119 1143.98 88.9233C1144.22 88.6348 1144.42 88.3444 1144.58 88.0522C1145.31 86.962 1146.01 85.7576 1146.67 84.439C1147.34 83.1204 1147.85 81.7945 1148.22 80.4612C1148.4 79.9443 1148.53 79.4256 1148.63 78.905C1148.74 78.3096 1148.8 77.7498 1148.83 77.2255C1148.88 76.1771 1148.78 75.1961 1148.52 74.2827C1148.27 73.3693 1147.86 72.5235 1147.3 71.7451C1146.17 70.2634 1144.95 69.1898 1143.63 68.5244C1142.31 67.7842 1140.94 67.3791 1139.52 67.3092C1136.97 67.259 1134.6 68.1185 1132.41 69.8878C1130.23 71.5821 1128.84 73.8412 1128.25 76.6649C1128.71 76.4623 1129.17 76.3346 1129.62 76.2818C1130.08 76.1541 1130.49 76.0994 1130.87 76.1178C1132.37 76.1914 1133.61 76.8156 1134.6 77.9905C1135.67 79.169 1136.17 80.5072 1136.1 82.005C1136.06 82.679 1135.88 83.3457 1135.55 84.005C1135.29 84.5931 1134.85 85.1719 1134.22 85.7416C1133.67 86.2401 1133.06 86.5851 1132.37 86.7767C1131.69 86.9682 1130.97 87.0456 1130.22 87.0088C1129.1 86.9536 1128.06 86.6026 1127.12 85.9556C1126.17 85.3087 1125.58 84.4162 1125.34 83.2781C1125.08 82.3647 1124.9 81.4924 1124.79 80.6613C1124.76 79.7589 1124.76 78.9333 1124.8 78.1844C1125.1 73.5449 1127.05 69.8494 1130.63 67.0979C1134.3 64.3501 1138.45 63.1277 1143.09 63.4307C1143.46 63.4491 1143.84 63.4675 1144.21 63.4859C1144.59 63.5043 1144.96 63.5602 1145.33 63.6534C1145.7 63.6718 1146.08 63.7277 1146.45 63.821C1146.82 63.9143 1147.19 64.0075 1147.56 64.1008C1151.49 65.1945 1154.39 67.139 1156.28 69.9344C1158.17 72.7298 1159.04 75.7751 1158.87 79.0702C1158.78 80.9425 1158.35 82.7607 1157.59 84.525C1156.91 86.2929 1155.88 88.0068 1154.52 89.6668Z" fill="black"/>
</svg>
