<svg width="1440" height="1024" viewBox="0 0 1440 1024" fill="none" xmlns="http://www.w3.org/2000/svg">
<path d="M688.22 235.038L688.239 234.96L688.254 234.882C692.25 214.608 676.215 195.743 655.565 198.886L655.555 198.888L655.545 198.889L188.33 272.521L188.29 272.527L188.25 272.534C170.98 275.627 159.694 294.111 165.809 310.819L225.071 495.719L225.091 495.781L225.113 495.843C229.179 507.189 240.322 515.465 252.643 515.465H598.63C612.046 515.465 623.248 506.03 626.284 492.726C626.286 492.718 626.288 492.71 626.29 492.703L688.22 235.038Z" fill="#D9D9D9" stroke="#7D7E34" stroke-width="7.72823"/>
<path d="M256.817 506.396H594.496C605.723 506.396 615.223 498.623 617.814 487.396L678.268 239.534C681.723 222.262 667.905 206.716 650.632 209.307L194.636 280.125C179.954 282.716 170.454 298.261 175.636 312.079L233.499 489.987C236.954 499.487 246.454 506.396 256.817 506.396Z" fill="#6EA5A0"/>
<path d="M248.663 476.337C254.87 476.337 265.775 466.942 271.647 458.386C268.627 462.916 267.285 464.929 266.782 467.781C266.11 471.975 272.15 476.337 277.351 476.337C284.732 476.337 292.282 465.264 301.509 455.702C300.67 454.024 299.663 453.856 298.321 455.199C292.449 461.07 285.403 467.445 281.041 469.794C278.022 471.472 277.351 470.297 277.854 467.781C279.867 455.702 305.703 427.853 311.239 423.659C308.89 420.807 300.334 417.619 296.308 421.981L295.134 423.491C293.959 419.968 285.907 416.948 283.222 416.948C271.311 416.948 241.114 451.508 238.597 466.439C237.758 471.472 244.469 476.337 248.663 476.337ZM250.173 469.794C248.999 469.794 249.166 469.123 249.334 468.452C250.676 460.735 275.841 430.873 282.048 426.846C285.571 424.33 292.449 424.833 291.946 427.35C277.351 445.133 255.206 469.794 250.173 469.794Z" fill="#2D2D2B"/>
<path d="M331.697 476.337C342.434 476.337 346.628 465.264 355.855 455.702C355.016 454.024 354.01 453.856 352.668 455.199C346.628 460.903 336.73 469.794 333.878 469.794C332.536 469.794 331.865 468.955 332.2 466.942C334.214 456.037 359.043 434.899 359.043 427.685C359.043 423.156 351.997 417.452 348.138 417.452C344.279 417.452 331.865 430.873 320.96 441.777C327.503 433.389 333.207 426.343 334.549 423.156C335.891 419.8 330.691 416.11 324.987 418.458C321.631 429.027 291.098 461.07 291.098 466.942C290.93 471.472 296.299 475.498 300.996 475.498C300.996 468.284 341.092 423.491 348.306 423.491C349.145 423.491 349.48 423.827 349.145 424.833C348.641 428.524 319.283 453.521 319.283 464.426C319.283 468.62 326.496 476.337 331.697 476.337Z" fill="#2D2D2B"/>
<path d="M329.911 534.048C349.707 534.048 375.543 477.847 420.168 421.142C419.497 417.116 410.27 410.573 406.243 415.606C398.862 430.37 371.684 466.942 359.94 466.942C359.102 466.942 359.102 466.607 359.102 465.6C359.102 458.218 389.97 430.537 389.97 422.652C389.97 418.458 385.273 413.425 379.233 414.767C377.22 425.672 348.532 452.514 348.532 462.748C348.532 467.278 357.256 474.659 361.115 474.659C363.631 474.659 371.852 468.62 378.73 461.574C373.697 468.452 368.664 475.498 363.631 482.209C362.96 481.538 361.618 481.202 359.605 481.202C335.615 483.383 316.154 504.018 312.631 514.923C309.779 523.814 323.536 534.048 329.911 534.048ZM326.723 524.15C324.71 524.15 325.046 521.466 325.381 520.291C328.233 510.058 345.848 488.584 360.947 485.564C343.667 508.548 332.427 524.15 326.723 524.15Z" fill="#2D2D2B"/>
<path d="M418.734 476.001C426.954 476.001 445.912 455.031 445.912 452.682C445.912 451.172 444.066 449.998 443.228 450.669C432.155 461.741 422.257 466.439 418.398 466.439C416.05 466.439 415.211 465.264 415.211 462.916C415.211 456.876 434.001 437.416 446.247 422.485C450.441 421.981 452.287 421.646 455.474 422.149C457.152 420.807 458.662 417.452 457.488 416.948C456.145 416.445 453.964 416.277 451.28 416.277C456.984 408.896 459.333 406.044 459.333 402.688C459.333 400.34 455.642 395.475 449.267 396.313C447.757 402.688 444.905 407.386 439.201 415.271C436.517 414.767 433.665 413.929 430.645 412.754C426.787 414.6 423.599 419.968 426.787 423.323C427.458 424.162 429.639 424.33 432.323 424.162C421.921 437.08 403.132 450.333 402.796 457.715C402.461 466.942 413.533 476.001 418.734 476.001Z" fill="#2D2D2B"/>
<path d="M479.061 414.767C482.584 414.767 487.114 412.251 487.952 407.721C488.624 403.695 485.939 401.011 482.248 401.011C476.377 401.011 473.86 404.031 473.189 407.721C472.35 412.083 476.209 414.767 479.061 414.767ZM445.34 476.001C453.896 476.001 471.008 462.245 478.054 452.011L475.202 449.662C467.821 457.38 454.4 469.123 448.36 469.123C447.353 469.123 447.186 468.452 447.018 466.942C446.85 459.225 477.887 433.222 477.887 425.672C477.887 418.123 471.679 416.11 465.472 417.787C463.962 429.027 435.274 456.037 435.274 463.084C435.274 468.62 442.153 476.001 445.34 476.001Z" fill="#2D2D2B"/>
<path d="M532.077 476.337C539.459 476.337 547.008 465.264 552.88 455.702C552.041 454.024 550.867 453.689 549.692 455.199C543.485 462.748 533.755 469.794 530.903 469.794C529.561 469.794 528.89 468.955 529.225 466.942C531.238 456.037 556.067 434.396 556.067 427.685C556.067 423.491 549.021 417.452 545.163 417.452C541.975 417.452 532.413 426.846 523.521 436.073C526.541 431.879 528.89 428.356 529.225 426.008C529.561 423.156 523.857 417.452 519.998 417.452C516.811 417.452 506.409 426.846 496.847 436.241C501.544 430.37 505.403 425.672 506.409 423.156C507.751 419.8 502.551 416.11 496.847 418.458C488.291 433.893 462.958 456.709 462.958 465.264C462.958 471.472 466.649 476.505 472.856 475.498C482.754 454.528 516.139 423.491 519.998 423.491C520.837 423.491 521.172 423.827 520.837 424.833C520.334 428.524 489.465 456.037 489.465 466.271C489.465 470.801 495.504 475.498 500.873 474.156C510.603 453.185 541.472 423.491 545.33 423.491C546.169 423.491 546.505 423.827 546.169 424.833C545.666 428.524 516.139 453.856 516.139 462.748C516.139 470.297 525.199 476.337 532.077 476.337Z" fill="#2D2D2B"/>
<path d="M558.791 476.337C568.857 476.337 589.324 461.909 599.558 451.34C600.9 449.495 599.054 448.991 597.544 448.656C586.64 459.728 566.844 469.626 558.623 469.626C554.932 469.626 555.1 464.09 557.281 460.399C558.12 461.574 559.63 462.412 561.14 462.412C574.057 462.412 599.558 439.261 601.571 427.35C602.41 422.317 595.699 416.11 591.337 416.11C575.232 416.11 545.37 445.133 545.37 462.245C545.37 468.116 551.913 476.337 558.791 476.337ZM559.294 456.876C568.521 442.281 586.64 421.981 593.686 421.981C594.692 421.981 594.692 422.82 594.525 423.491C593.183 431.041 571.038 451.005 559.294 456.876Z" fill="#2D2D2B"/>
<path d="M293.056 401.844H301.816V342.606L344.784 337.6L364.809 154.463L301.816 149.457V111.912H293.056V148.622L230.897 143.616L251.339 348.446L293.056 343.44V401.844Z" fill="black"/>
<path d="M401.367 410.414H411.238V362.022L479.868 359.936L454.954 170.959L411.238 158.444V120.481H401.367V155.524L363.761 144.26L336.027 364.942L401.367 362.439V410.414Z" fill="black"/>
<path d="M504.543 401.844H513.304V342.189L560.861 344.692L571.29 151.96L513.304 149.457V111.912H504.543V149.457L451.146 147.371L473.255 339.686L504.543 341.772V401.844Z" fill="black"/>
<path d="M307.057 297.023H351.645V288.994L342.183 289.567L309.494 188.635H271.501L272.362 199.388L289.709 197.237L263.329 286.27L251.43 285.553V293.438H288.706V285.553L275.229 286.27L282.397 259.89H307.631L315.659 289.424L307.057 288.994V297.023ZM284.835 250.858L295.014 213.868L305.05 250.858H284.835Z" fill="#E6A311"/>
<path d="M524.571 276.985H569.159V268.957L559.696 269.53L527.008 168.598H489.015L489.875 179.351L507.223 177.2L480.843 266.233L468.943 265.516V273.401H506.219V265.516L492.743 266.233L499.911 239.853H525.144L533.173 269.387L524.571 268.957V276.985ZM502.348 230.82L512.528 193.831L522.564 230.82H502.348Z" fill="#E6A311"/>
<path d="M350.518 316.006H398.69V307.547L383.78 308.694L385.643 248.766L402.131 298.085L417.615 297.798L435.393 247.619V307.117L421.773 306.114V314.572H469.945V306.114L455.321 307.117L461.199 224.25L474.102 225.11V216.651H424.066V225.11L435.249 224.25L434.963 224.823L410.16 273.139L386.504 221.669V220.379L396.826 221.239V212.637H347.794V221.239L359.12 220.379L364.138 308.694L350.518 307.547V316.006Z" fill="#E6A311"/>
</svg>
