<svg width="1440" height="1024" viewBox="0 0 1440 1024" fill="none" xmlns="http://www.w3.org/2000/svg">
<path d="M642.108 154.208C642.439 150.349 642.688 146.582 642.854 142.814C643.019 140.885 643.102 139.047 643.185 137.118C643.268 136.015 643.268 134.913 643.268 133.902L649.893 137.945L651.632 139.047L655.111 141.069L655.194 140.977C654.117 140.058 653.123 139.139 652.129 138.22C651.632 137.761 651.053 137.301 650.556 136.934L649.065 135.556C647.326 134.086 645.669 132.615 643.93 131.237C644.51 130.594 645.09 129.951 645.669 129.216L648.154 125.908C649.81 123.703 651.55 121.498 653.206 119.201H653.123C651.053 120.946 649.065 122.876 647.077 124.714C646.084 125.632 645.09 126.551 644.096 127.562L643.268 128.389C643.185 125.632 643.019 122.876 642.854 120.028L642.688 117.271C642.605 116.26 642.605 115.342 642.522 114.423C642.439 112.493 642.274 110.564 642.108 108.726H642.025C641.943 110.564 641.777 112.493 641.694 114.423C641.611 115.342 641.528 116.26 641.528 117.271L641.363 120.028C641.197 123.06 641.032 126 640.949 129.032L639.458 128.021L635.98 125.908C633.743 124.53 631.424 123.152 629.105 121.865C631.093 123.703 633.081 125.541 635.151 127.378C636.228 128.205 637.222 129.124 638.216 130.043C638.878 130.594 639.541 131.145 640.203 131.605C638.795 133.351 637.47 135.188 636.062 137.026L634.737 138.68L631.01 143.641L631.093 143.733L634.075 140.977L635.648 139.599L637.139 138.128L640.949 134.545C640.949 135.372 640.949 136.291 641.032 137.118C641.114 139.047 641.197 140.885 641.363 142.814C641.528 146.582 641.777 150.349 642.108 154.208Z" fill="#D04D2A"/>
<path d="M615.981 204.329C616.504 198.24 616.896 192.296 617.157 186.352C617.419 183.308 617.549 180.409 617.68 177.364C617.811 175.625 617.811 173.885 617.811 172.29L628.264 178.669L631.009 180.409L636.497 183.598L636.627 183.453C634.929 182.003 633.361 180.554 631.793 179.104C631.009 178.379 630.094 177.654 629.31 177.074L626.958 174.9C624.214 172.58 621.6 170.261 618.856 168.086C619.771 167.071 620.685 166.057 621.6 164.897L625.52 159.678C628.134 156.199 630.878 152.719 633.491 149.095H633.361C630.094 151.849 626.958 154.894 623.822 157.793C622.254 159.243 620.685 160.693 619.117 162.287L617.811 163.592C617.68 159.243 617.419 154.894 617.157 150.4L616.896 146.051C616.765 144.456 616.765 143.006 616.635 141.557C616.504 138.512 616.243 135.468 615.981 132.568H615.851C615.72 135.468 615.459 138.512 615.328 141.557C615.197 143.006 615.067 144.456 615.067 146.051L614.805 150.4C614.544 155.184 614.283 159.823 614.152 164.607L611.8 163.012L606.312 159.678C602.783 157.503 599.125 155.329 595.466 153.299C598.602 156.199 601.738 159.098 605.005 161.997C606.704 163.302 608.272 164.752 609.84 166.202C610.885 167.071 611.93 167.941 612.976 168.666C610.754 171.42 608.664 174.32 606.442 177.219L604.351 179.829L598.471 187.657L598.602 187.802L603.306 183.453L605.789 181.278L608.141 178.959L614.152 173.305C614.152 174.61 614.152 176.06 614.283 177.364C614.413 180.409 614.544 183.308 614.805 186.352C615.067 192.296 615.459 198.24 615.981 204.329Z" fill="#D04D2A"/>
<path d="M225.063 149.008C225.427 144.769 225.7 140.63 225.882 136.491C226.064 134.371 226.155 132.352 226.246 130.233C226.337 129.021 226.337 127.81 226.337 126.7L233.616 131.141L235.527 132.352L239.348 134.573L239.439 134.472C238.257 133.463 237.165 132.453 236.073 131.444C235.527 130.939 234.89 130.435 234.344 130.031L232.706 128.517C230.796 126.901 228.976 125.286 227.065 123.772C227.702 123.066 228.339 122.359 228.976 121.551L231.705 117.918C233.525 115.495 235.436 113.072 237.256 110.549H237.165C234.89 112.467 232.706 114.586 230.523 116.605C229.431 117.615 228.339 118.624 227.247 119.734L226.337 120.643C226.246 117.615 226.064 114.586 225.882 111.457L225.7 108.429C225.609 107.318 225.609 106.309 225.518 105.3C225.427 103.18 225.245 101.06 225.063 99.041H224.972C224.881 101.06 224.699 103.18 224.608 105.3C224.517 106.309 224.426 107.318 224.426 108.429L224.244 111.457C224.062 114.788 223.881 118.018 223.79 121.35L222.152 120.239L218.33 117.918C215.874 116.403 213.326 114.889 210.778 113.476C212.962 115.495 215.146 117.514 217.42 119.533C218.603 120.441 219.695 121.451 220.787 122.46C221.515 123.066 222.243 123.671 222.971 124.176C221.424 126.094 219.968 128.113 218.421 130.132L216.965 131.949L212.871 137.4L212.962 137.501L216.238 134.472L217.966 132.958L219.604 131.343L223.79 127.406C223.79 128.315 223.79 129.324 223.881 130.233C223.971 132.352 224.062 134.371 224.244 136.491C224.426 140.63 224.699 144.769 225.063 149.008Z" fill="#D04D2A"/>
<path d="M196.359 204.072C196.933 197.383 197.364 190.853 197.651 184.323C197.938 180.978 198.082 177.793 198.225 174.448C198.369 172.537 198.369 170.626 198.369 168.874L209.854 175.881L212.868 177.793L218.898 181.297L219.041 181.137C217.175 179.545 215.452 177.952 213.73 176.359C212.868 175.563 211.863 174.767 211.002 174.13L208.418 171.741C205.403 169.192 202.532 166.644 199.517 164.255C200.522 163.14 201.527 162.025 202.532 160.751L206.839 155.017C209.71 151.195 212.725 147.373 215.596 143.391H215.452C211.863 146.417 208.418 149.762 204.973 152.947C203.25 154.54 201.527 156.132 199.804 157.884L198.369 159.318C198.225 154.54 197.938 149.762 197.651 144.824L197.364 140.046C197.22 138.294 197.22 136.702 197.077 135.109C196.933 131.764 196.646 128.42 196.359 125.234H196.215C196.072 128.42 195.785 131.764 195.641 135.109C195.498 136.702 195.354 138.294 195.354 140.046L195.067 144.824C194.78 150.08 194.493 155.177 194.349 160.433L191.765 158.681L185.736 155.017C181.86 152.628 177.84 150.239 173.82 148.01C177.266 151.195 180.711 154.38 184.3 157.566C186.166 158.999 187.889 160.592 189.612 162.184C190.76 163.14 191.909 164.096 193.057 164.892C190.617 167.918 188.32 171.103 185.879 174.289L183.582 177.156L177.122 185.756L177.266 185.915L182.434 181.137L185.161 178.748L187.745 176.2L194.349 169.989C194.349 171.422 194.349 173.015 194.493 174.448C194.636 177.793 194.78 180.978 195.067 184.323C195.354 190.853 195.785 197.383 196.359 204.072Z" fill="#D04D2A"/>
<path d="M574.539 642.837C575.113 636.148 575.544 629.618 575.831 623.088C576.118 619.744 576.261 616.558 576.405 613.214C576.549 611.302 576.549 609.391 576.549 607.639L588.033 614.647L591.048 616.558L597.077 620.062L597.221 619.903C595.355 618.31 593.632 616.718 591.909 615.125C591.048 614.329 590.043 613.532 589.182 612.895L586.598 610.506C583.583 607.958 580.712 605.41 577.697 603.021C578.702 601.906 579.707 600.791 580.712 599.517L585.018 593.783C587.89 589.961 590.904 586.138 593.776 582.157H593.632C590.043 585.183 586.598 588.527 583.152 591.713C581.43 593.305 579.707 594.898 577.984 596.65L576.549 598.083C576.405 593.305 576.118 588.527 575.831 583.59L575.544 578.812C575.4 577.06 575.4 575.467 575.256 573.875C575.113 570.53 574.826 567.185 574.539 564H574.395C574.252 567.185 573.964 570.53 573.821 573.875C573.677 575.467 573.534 577.06 573.534 578.812L573.247 583.59C572.96 588.846 572.672 593.942 572.529 599.198L569.945 597.446L563.915 593.783C560.039 591.394 556.02 589.005 552 586.775C555.445 589.961 558.891 593.146 562.48 596.331C564.346 597.765 566.069 599.357 567.791 600.95C568.94 601.906 570.088 602.861 571.237 603.658C568.796 606.684 566.499 609.869 564.059 613.054L561.762 615.921L555.302 624.522L555.445 624.681L560.614 619.903L563.341 617.514L565.925 614.966L572.529 608.754C572.529 610.188 572.529 611.78 572.672 613.214C572.816 616.558 572.96 619.744 573.247 623.088C573.534 629.618 573.964 636.148 574.539 642.837Z" fill="#6EA5A0"/>
<path d="M1312.66 426.902C1313.01 422.849 1313.27 418.892 1313.44 414.935C1313.61 412.908 1313.7 410.978 1313.79 408.951C1313.88 407.793 1313.88 406.635 1313.88 405.573L1320.84 409.82L1322.66 410.978L1326.32 413.101L1326.4 413.005C1325.27 412.04 1324.23 411.074 1323.18 410.109C1322.66 409.627 1322.05 409.144 1321.53 408.758L1319.97 407.31C1318.14 405.766 1316.4 404.222 1314.57 402.774C1315.18 402.099 1315.79 401.423 1316.4 400.651L1319.01 397.177C1320.75 394.86 1322.58 392.544 1324.31 390.131H1324.23C1322.05 391.965 1319.97 393.992 1317.88 395.922C1316.83 396.887 1315.79 397.852 1314.75 398.914L1313.88 399.783C1313.79 396.887 1313.61 393.992 1313.44 391L1313.27 388.105C1313.18 387.043 1313.18 386.078 1313.09 385.113C1313.01 383.086 1312.83 381.059 1312.66 379.129H1312.57C1312.48 381.059 1312.31 383.086 1312.22 385.113C1312.14 386.078 1312.05 387.043 1312.05 388.105L1311.87 391C1311.7 394.185 1311.53 397.273 1311.44 400.458L1309.87 399.396L1306.22 397.177C1303.87 395.729 1301.44 394.281 1299 392.93C1301.09 394.86 1303.18 396.791 1305.35 398.721C1306.48 399.589 1307.53 400.555 1308.57 401.52C1309.27 402.099 1309.96 402.678 1310.66 403.16C1309.18 404.994 1307.79 406.924 1306.31 408.855L1304.92 410.592L1301 415.804L1301.09 415.9L1304.22 413.005L1305.87 411.557L1307.44 410.013L1311.44 406.249C1311.44 407.117 1311.44 408.083 1311.53 408.951C1311.61 410.978 1311.7 412.908 1311.87 414.935C1312.05 418.892 1312.31 422.849 1312.66 426.902Z" fill="#D04D2A"/>
<path d="M1342.95 392.306C1343.38 387.277 1343.7 382.367 1343.92 377.458C1344.13 374.943 1344.24 372.548 1344.35 370.033C1344.46 368.596 1344.46 367.159 1344.46 365.842L1353.09 371.111L1355.36 372.548L1359.89 375.182L1360 375.063C1358.6 373.865 1357.3 372.668 1356.01 371.47C1355.36 370.871 1354.6 370.273 1353.96 369.794L1352.01 367.998C1349.75 366.082 1347.59 364.166 1345.32 362.369C1346.08 361.531 1346.83 360.693 1347.59 359.735L1350.83 355.424C1352.98 352.55 1355.25 349.676 1357.41 346.682H1357.3C1354.6 348.958 1352.01 351.472 1349.42 353.867C1348.13 355.065 1346.83 356.262 1345.54 357.58L1344.46 358.657C1344.35 355.065 1344.13 351.472 1343.92 347.76L1343.7 344.168C1343.59 342.851 1343.59 341.653 1343.49 340.456C1343.38 337.941 1343.16 335.426 1342.95 333.031H1342.84C1342.73 335.426 1342.51 337.941 1342.41 340.456C1342.3 341.653 1342.19 342.851 1342.19 344.168L1341.97 347.76C1341.76 351.712 1341.54 355.544 1341.43 359.495L1339.49 358.178L1334.96 355.424C1332.04 353.628 1329.02 351.832 1326 350.155C1328.59 352.55 1331.18 354.945 1333.88 357.34C1335.28 358.418 1336.58 359.615 1337.87 360.813C1338.74 361.531 1339.6 362.25 1340.46 362.848C1338.63 365.124 1336.9 367.519 1335.07 369.914L1333.34 372.069L1328.48 378.535L1328.59 378.655L1332.48 375.063L1334.53 373.266L1336.47 371.35L1341.43 366.68C1341.43 367.758 1341.43 368.956 1341.54 370.033C1341.65 372.548 1341.76 374.943 1341.97 377.458C1342.19 382.367 1342.51 387.277 1342.95 392.306Z" fill="#6EA5A0"/>
<path d="M197.658 546.425C198.006 542.372 198.267 538.415 198.441 534.458C198.615 532.431 198.702 530.501 198.789 528.474C198.876 527.316 198.876 526.158 198.876 525.096L205.835 529.343L207.662 530.501L211.316 532.624L211.403 532.528C210.272 531.563 209.228 530.597 208.184 529.632C207.662 529.15 207.053 528.667 206.531 528.281L204.965 526.833C203.138 525.289 201.399 523.745 199.572 522.297C200.181 521.622 200.79 520.946 201.399 520.174L204.008 516.7C205.748 514.383 207.575 512.067 209.315 509.654H209.228C207.053 511.488 204.965 513.515 202.877 515.445C201.834 516.41 200.79 517.375 199.746 518.437L198.876 519.305C198.789 516.41 198.615 513.515 198.441 510.523L198.267 507.627C198.18 506.566 198.18 505.601 198.093 504.636C198.006 502.609 197.832 500.582 197.658 498.652H197.571C197.484 500.582 197.31 502.609 197.223 504.636C197.136 505.601 197.049 506.566 197.049 507.627L196.875 510.523C196.701 513.708 196.527 516.796 196.44 519.981L194.874 518.919L191.22 516.7C188.872 515.252 186.436 513.804 184 512.453C186.088 514.383 188.176 516.314 190.35 518.244C191.481 519.112 192.525 520.078 193.569 521.043C194.265 521.622 194.961 522.201 195.657 522.683C194.178 524.517 192.786 526.447 191.307 528.378L189.916 530.115L186.001 535.326L186.088 535.423L189.22 532.528L190.872 531.08L192.438 529.536L196.44 525.772C196.44 526.64 196.44 527.606 196.527 528.474C196.614 530.501 196.701 532.431 196.875 534.458C197.049 538.415 197.31 542.372 197.658 546.425Z" fill="#D04D2A"/>
<path d="M138.658 410.057C139.006 406.004 139.267 402.047 139.441 398.09C139.615 396.063 139.702 394.133 139.789 392.106C139.876 390.948 139.876 389.79 139.876 388.728L146.835 392.975L148.662 394.133L152.316 396.256L152.403 396.159C151.272 395.194 150.228 394.229 149.184 393.264C148.662 392.782 148.053 392.299 147.531 391.913L145.965 390.465C144.138 388.921 142.399 387.377 140.572 385.929C141.181 385.254 141.79 384.578 142.399 383.806L145.008 380.331C146.748 378.015 148.575 375.699 150.315 373.286H150.228C148.053 375.12 145.965 377.147 143.877 379.077C142.834 380.042 141.79 381.007 140.746 382.069L139.876 382.937C139.789 380.042 139.615 377.147 139.441 374.155L139.267 371.259C139.18 370.198 139.18 369.233 139.093 368.267C139.006 366.241 138.832 364.214 138.658 362.284H138.571C138.484 364.214 138.31 366.241 138.223 368.267C138.136 369.233 138.049 370.198 138.049 371.259L137.875 374.155C137.701 377.34 137.527 380.428 137.44 383.613L135.874 382.551L132.22 380.331C129.872 378.884 127.436 377.436 125 376.085C127.088 378.015 129.176 379.945 131.35 381.876C132.481 382.744 133.525 383.709 134.569 384.675C135.265 385.254 135.961 385.833 136.657 386.315C135.178 388.149 133.786 390.079 132.307 392.009L130.916 393.747L127.001 398.958L127.088 399.055L130.22 396.159L131.872 394.712L133.438 393.168L137.44 389.404C137.44 390.272 137.44 391.237 137.527 392.106C137.614 394.133 137.701 396.063 137.875 398.09C138.049 402.047 138.31 406.004 138.658 410.057Z" fill="#6EA5A0"/>
</svg>
