<svg viewBox="0 0 34 62" fill="none" xmlns="http://www.w3.org/2000/svg">
  <path d="M0.857871 12.0074C1.70495 15.5011 4.45027 17.2442 7.86275 16.4168C9.81274 15.944 11.4229 11.9406 13.3728 11.4678C23.7728 8.94627 42.7167 19.6658 15.0919 26.3636L12.0044 27.1122C11.1106 27.3289 11.0023 28.3014 11.6622 29.6039L17.5963 42.0153L19.3025 41.6016L18.9552 36.2662L21.9615 35.5373C34.3114 32.543 34.449 24.5952 33.6684 20.3112C30.6838 3.74359 19.4317 -2.21688 6.51305 0.915327C1.71932 2.07759 -0.363493 6.9699 0.857871 12.0074ZM23.3189 61.36C27.6251 60.316 29.7793 56.7827 28.6762 52.2328C27.5927 47.764 24.0595 45.6098 19.7533 46.6539C15.3658 47.7176 13.2928 51.2311 14.3762 55.6999C15.4794 60.2498 18.9314 62.4238 23.3189 61.36Z" fill="black"/>
</svg>
