<svg width="373" height="305" viewBox="0 0 373 305" fill="none" xmlns="http://www.w3.org/2000/svg">
<path d="M369.751 95.2226L369.764 95.1683L369.775 95.1135C372.573 80.9181 361.345 67.709 346.887 69.9098L346.88 69.9109L346.873 69.912L19.7328 121.468L19.7049 121.473L19.6771 121.478C7.58457 123.643 -0.317594 136.585 3.96408 148.284L45.4587 277.749L45.4727 277.793L45.4882 277.836C48.3349 285.78 56.137 291.575 64.764 291.575H307.021C316.414 291.575 324.257 284.97 326.384 275.656C326.385 275.65 326.387 275.644 326.388 275.637L369.751 95.2226Z" fill="#D9D9D9" stroke="#7D7E34" stroke-width="5.41123"/>
<path d="M67.6866 285.225H304.126C311.987 285.225 318.639 279.783 320.453 271.922L362.783 98.3713C365.202 86.2772 355.526 75.3925 343.432 77.2066L24.1478 126.792C13.8678 128.607 7.21603 139.491 10.8443 149.167L51.3595 273.736C53.7783 280.388 60.4301 285.225 67.6866 285.225Z" fill="#6EA5A0"/>
<path d="M61.9771 264.179C66.3234 264.179 73.9588 257.601 78.0701 251.61C75.9557 254.782 75.016 256.191 74.6636 258.188C74.1937 261.125 78.4225 264.179 82.064 264.179C87.2325 264.179 92.5186 256.426 98.9792 249.731C98.3919 248.556 97.6871 248.439 96.7474 249.378C92.636 253.49 87.7024 257.953 84.6483 259.598C82.5339 260.773 82.064 259.95 82.4164 258.188C83.826 249.731 101.916 230.231 105.792 227.294C104.148 225.298 98.157 223.066 95.3378 226.12L94.5155 227.177C93.6932 224.71 88.0548 222.596 86.1753 222.596C77.8352 222.596 56.6911 246.794 54.9291 257.249C54.3418 260.773 59.0405 264.179 61.9771 264.179ZM63.0344 259.598C62.2121 259.598 62.3295 259.128 62.447 258.658C63.3868 253.255 81.0068 232.346 85.3531 229.526C87.8199 227.764 92.636 228.117 92.2836 229.879C82.064 242.33 66.5584 259.598 63.0344 259.598Z" fill="#2D2D2B"/>
<path d="M120.117 264.179C127.635 264.179 130.571 256.426 137.032 249.731C136.445 248.556 135.74 248.439 134.8 249.378C130.571 253.372 123.641 259.598 121.644 259.598C120.704 259.598 120.234 259.011 120.469 257.601C121.879 249.966 139.264 235.165 139.264 230.114C139.264 226.942 134.33 222.948 131.629 222.948C128.927 222.948 120.234 232.346 112.599 239.981C117.18 234.108 121.174 229.174 122.114 226.942C123.054 224.593 119.412 222.008 115.418 223.653C113.069 231.053 91.6899 253.49 91.6899 257.601C91.5724 260.773 95.3313 263.592 98.6204 263.592C98.6204 258.541 126.695 227.177 131.746 227.177C132.333 227.177 132.568 227.412 132.333 228.117C131.981 230.701 111.424 248.204 111.424 255.839C111.424 258.776 116.475 264.179 120.117 264.179Z" fill="#2D2D2B"/>
<path d="M118.866 304.588C132.727 304.588 150.817 265.236 182.063 225.532C181.593 222.713 175.133 218.132 172.313 221.656C167.145 231.993 148.115 257.601 139.893 257.601C139.305 257.601 139.305 257.366 139.305 256.661C139.305 251.493 160.919 232.111 160.919 226.59C160.919 223.653 157.63 220.129 153.401 221.069C151.992 228.704 131.905 247.499 131.905 254.664C131.905 257.836 138.013 263.004 140.715 263.004C142.477 263.004 148.233 258.776 153.049 253.842C149.525 258.658 146.001 263.592 142.477 268.29C142.007 267.821 141.067 267.586 139.658 267.586C122.86 269.113 109.234 283.561 106.767 291.196C104.77 297.422 114.402 304.588 118.866 304.588ZM116.634 297.657C115.225 297.657 115.459 295.778 115.694 294.955C117.691 287.79 130.025 272.754 140.597 270.64C128.498 286.733 120.628 297.657 116.634 297.657Z" fill="#2D2D2B"/>
<path d="M181.059 263.944C186.815 263.944 200.089 249.261 200.089 247.616C200.089 246.559 198.797 245.737 198.209 246.207C190.457 253.959 183.526 257.249 180.824 257.249C179.18 257.249 178.592 256.426 178.592 254.782C178.592 250.553 191.749 236.927 200.324 226.472C203.261 226.12 204.553 225.885 206.785 226.237C207.959 225.298 209.016 222.948 208.194 222.596C207.254 222.243 205.727 222.126 203.848 222.126C207.842 216.957 209.486 214.96 209.486 212.611C209.486 210.967 206.902 207.56 202.438 208.147C201.381 212.611 199.384 215.9 195.39 221.421C193.511 221.069 191.514 220.481 189.399 219.659C186.698 220.951 184.466 224.71 186.698 227.06C187.168 227.647 188.695 227.764 190.574 227.647C183.291 236.692 170.135 245.972 169.9 251.14C169.665 257.601 177.418 263.944 181.059 263.944Z" fill="#2D2D2B"/>
<path d="M223.3 221.069C225.766 221.069 228.938 219.307 229.525 216.135C229.995 213.316 228.116 211.436 225.532 211.436C221.42 211.436 219.658 213.551 219.188 216.135C218.601 219.189 221.303 221.069 223.3 221.069ZM199.689 263.944C205.68 263.944 217.661 254.312 222.595 247.146L220.598 245.502C215.429 250.905 206.032 259.128 201.803 259.128C201.098 259.128 200.981 258.658 200.863 257.601C200.746 252.197 222.477 233.99 222.477 228.704C222.477 223.418 218.131 222.008 213.785 223.183C212.728 231.053 192.641 249.966 192.641 254.899C192.641 258.776 197.457 263.944 199.689 263.944Z" fill="#2D2D2B"/>
<path d="M260.421 264.179C265.59 264.179 270.876 256.426 274.987 249.731C274.4 248.556 273.577 248.321 272.755 249.378C268.409 254.664 261.596 259.598 259.599 259.598C258.659 259.598 258.189 259.011 258.424 257.601C259.834 249.966 277.219 234.812 277.219 230.114C277.219 227.177 272.285 222.948 269.583 222.948C267.352 222.948 260.656 229.526 254.43 235.987C256.545 233.05 258.189 230.584 258.424 228.939C258.659 226.942 254.665 222.948 251.963 222.948C249.732 222.948 242.449 229.526 235.753 236.104C239.042 231.993 241.744 228.704 242.449 226.942C243.388 224.593 239.747 222.008 235.753 223.653C229.762 234.46 212.025 250.435 212.025 256.426C212.025 260.773 214.609 264.297 218.955 263.592C225.886 248.908 249.262 227.177 251.963 227.177C252.551 227.177 252.786 227.412 252.551 228.117C252.198 230.701 230.584 249.966 230.584 257.131C230.584 260.303 234.813 263.592 238.572 262.652C245.385 247.969 266.999 227.177 269.701 227.177C270.288 227.177 270.523 227.412 270.288 228.117C269.936 230.701 249.262 248.439 249.262 254.664C249.262 259.95 255.605 264.179 260.421 264.179Z" fill="#2D2D2B"/>
<path d="M279.126 264.179C286.174 264.179 300.505 254.077 307.67 246.677C308.61 245.384 307.318 245.032 306.261 244.797C298.625 252.55 284.764 259.48 279.008 259.48C276.424 259.48 276.542 255.604 278.069 253.02C278.656 253.842 279.713 254.429 280.77 254.429C289.815 254.429 307.67 238.219 309.08 229.879C309.667 226.355 304.969 222.008 301.914 222.008C290.638 222.008 269.728 242.33 269.728 254.312C269.728 258.423 274.31 264.179 279.126 264.179ZM279.478 250.553C285.939 240.333 298.625 226.12 303.559 226.12C304.264 226.12 304.264 226.707 304.146 227.177C303.207 232.463 287.701 246.442 279.478 250.553Z" fill="#2D2D2B"/>
<path d="M93.0606 212.02H99.1947V170.543L129.281 167.037L143.301 38.8066L99.1947 35.3015V9.0127H93.0606V34.7173L49.5381 31.2121L63.8509 174.632L93.0606 171.127V212.02Z" fill="black"/>
<path d="M168.899 218.02H175.811V184.137L223.865 182.677L206.421 50.3565L175.811 41.5936V15.0127H168.899V39.5489L142.568 31.6623L123.149 186.182L168.899 184.429V218.02Z" fill="black"/>
<path d="M241.142 212.02H247.276V170.251L280.576 172.003L287.878 37.0541L247.276 35.3015V9.0127H241.142V35.3015L203.754 33.841L219.235 168.498L241.142 169.958V212.02Z" fill="black"/>
<path d="M102.865 138.625H134.085V133.004L127.459 133.405L104.571 62.7334H77.9691L78.5714 70.2623L90.7181 68.7566L72.2471 131.096L63.915 130.594V136.116H90.0154V130.594L80.5791 131.096L85.5984 112.625H103.266L108.888 133.305L102.865 133.004V138.625ZM87.305 106.301L94.4324 80.4013L101.459 106.301H87.305Z" fill="#E6A311"/>
<path d="M255.166 124.596H286.386V118.974L279.76 119.376L256.872 48.7041H230.27L230.872 56.233L243.019 54.7273L224.548 117.067L216.216 116.565V122.086H242.316V116.565L232.88 117.067L237.899 98.5959H255.567L261.189 119.275L255.166 118.974V124.596ZM239.606 92.2716L246.733 66.372L253.76 92.2716H239.606Z" fill="#E6A311"/>
<path d="M133.295 151.918H167.025V145.996L156.585 146.799L157.89 104.837L169.434 139.37L180.276 139.169L192.724 104.034V145.694L183.187 144.992V150.914H216.917V144.992L206.677 145.694L210.793 87.6713L219.828 88.2736V82.3509H184.793V88.2736L192.623 87.6713L192.422 88.0728L175.056 121.903L158.492 85.8644V84.9609L165.72 85.5632V79.54H131.388V85.5632L139.318 84.9609L142.832 146.799L133.295 145.996V151.918Z" fill="#E6A311"/>
<path d="M337.464 38.6271C337.696 35.9251 337.87 33.2873 337.986 30.6496C338.102 29.2985 338.16 28.0118 338.218 26.6608C338.276 25.8888 338.276 25.1168 338.276 24.4091L342.915 27.2398L344.133 28.0118L346.568 29.4272L346.626 29.3629C345.872 28.7195 345.176 28.0762 344.48 27.4328C344.133 27.1112 343.727 26.7895 343.379 26.5321L342.335 25.5671C341.117 24.5377 339.957 23.5084 338.74 22.5434C339.145 22.093 339.551 21.6427 339.957 21.128L341.697 18.8119C342.857 17.2679 344.075 15.7238 345.234 14.1155H345.176C343.727 15.3378 342.335 16.6889 340.943 17.9756C340.247 18.6189 339.551 19.2623 338.855 19.9699L338.276 20.549C338.218 18.6189 338.102 16.6889 337.986 14.6945L337.87 12.7644C337.812 12.0567 337.812 11.4134 337.754 10.77C337.696 9.41899 337.58 8.06795 337.464 6.78125H337.406C337.348 8.06795 337.232 9.41899 337.174 10.77C337.116 11.4134 337.058 12.0567 337.058 12.7644L336.942 14.6945C336.826 16.8175 336.71 18.8763 336.652 20.9993L335.608 20.2916L333.173 18.8119C331.607 17.8469 329.983 16.8819 328.359 15.9812C329.751 17.2679 331.143 18.5546 332.593 19.8413C333.346 20.4203 334.042 21.0636 334.738 21.707C335.202 22.093 335.666 22.479 336.13 22.8007C335.144 24.0231 334.216 25.3098 333.23 26.5965L332.303 27.7545L329.693 31.2286L329.751 31.2929L331.839 29.3629L332.941 28.3979L333.984 27.3685L336.652 24.8594C336.652 25.4384 336.652 26.0818 336.71 26.6608C336.768 28.0118 336.826 29.2985 336.942 30.6496C337.058 33.2873 337.232 35.9251 337.464 38.6271Z" fill="#D04D2A"/>
<path d="M319.17 73.7216C319.536 69.4583 319.811 65.2965 319.994 61.1347C320.177 59.003 320.268 56.9729 320.36 54.8413C320.451 53.6232 320.451 52.4051 320.451 51.2885L327.771 55.7548L329.692 56.9729L333.535 59.2061L333.627 59.1046C332.437 58.0895 331.339 57.0744 330.241 56.0593C329.692 55.5518 329.052 55.0443 328.503 54.6382L326.856 53.1156C324.935 51.4915 323.105 49.8674 321.183 48.3448C321.824 47.6343 322.464 46.9237 323.105 46.1117L325.85 42.4574C327.679 40.0212 329.601 37.5851 331.431 35.0474H331.339C329.052 36.976 326.856 39.1077 324.66 41.1378C323.562 42.1529 322.464 43.1679 321.366 44.2845L320.451 45.1981C320.36 42.1529 320.177 39.1077 319.994 35.961L319.811 32.9157C319.719 31.7992 319.719 30.7841 319.628 29.769C319.536 27.6374 319.353 25.5057 319.17 23.4756H319.079C318.987 25.5057 318.804 27.6374 318.713 29.769C318.621 30.7841 318.53 31.7992 318.53 32.9157L318.347 35.961C318.164 39.3107 317.981 42.5589 317.889 45.9086L316.243 44.7921L312.4 42.4574C309.929 40.9348 307.368 39.4122 304.806 37.9911C307.002 40.0212 309.197 42.0514 311.485 44.0815C312.674 44.9951 313.772 46.0101 314.87 47.0252C315.602 47.6343 316.334 48.2433 317.066 48.7508C315.511 50.6795 314.047 52.7096 312.491 54.7397L311.027 56.5669L306.91 62.0482L307.002 62.1498L310.295 59.1046L312.034 57.5819L313.681 55.9578L317.889 51.9991C317.889 52.9126 317.889 53.9277 317.981 54.8413C318.072 56.9729 318.164 59.003 318.347 61.1347C318.53 65.2965 318.804 69.4583 319.17 73.7216Z" fill="#D04D2A"/>
<path d="M45.4534 34.9865C45.7082 32.018 45.8994 29.1201 46.0268 26.2222C46.1542 24.738 46.2179 23.3244 46.2816 21.8401C46.3453 20.9919 46.3453 20.1438 46.3453 19.3663L51.442 22.4762L52.7799 23.3244L55.4556 24.8793L55.5194 24.8086C54.6911 24.1018 53.9266 23.395 53.1621 22.6882C52.7799 22.3349 52.3339 21.9814 51.9517 21.6987L50.8049 20.6385C49.467 19.5077 48.1929 18.3768 46.855 17.3166C47.301 16.8218 47.7469 16.3271 48.1929 15.7616L50.1041 13.2171C51.3783 11.5208 52.7162 9.82451 53.9904 8.05751H53.9266C52.3339 9.40043 50.8049 10.8847 49.2759 12.2983C48.5114 13.0051 47.7469 13.7119 46.9824 14.4894L46.3453 15.1255C46.2816 13.0051 46.1542 10.8847 46.0268 8.69363L45.8994 6.57323C45.8357 5.79575 45.8357 5.08896 45.772 4.38215C45.7082 2.89788 45.5808 1.4136 45.4534 0H45.3897C45.326 1.4136 45.1986 2.89788 45.1349 4.38215C45.0712 5.08896 45.0075 5.79575 45.0075 6.57323L44.88 8.69363C44.7526 11.0261 44.6252 13.2878 44.5615 15.6203L43.4147 14.8428L40.739 13.2171C39.0188 12.1569 37.235 11.0967 35.4512 10.1072C36.9802 11.5208 38.5092 12.9344 40.1019 14.348C40.9301 14.9841 41.6946 15.6909 42.4591 16.3977C42.9688 16.8218 43.4784 17.2459 43.9881 17.5993C42.9051 18.9422 41.8857 20.3558 40.8027 21.7694L39.7834 23.0416L36.9165 26.8584L36.9802 26.929L39.2737 24.8086L40.4841 23.7484L41.6309 22.6176L44.5615 19.861C44.5615 20.4972 44.5615 21.204 44.6252 21.8401C44.6889 23.3244 44.7526 24.738 44.88 26.2222C45.0075 29.1201 45.1986 32.018 45.4534 34.9865Z" fill="#D04D2A"/>
<path d="M25.3546 73.5411C25.7567 68.8574 26.0583 64.2851 26.2593 59.7129C26.4603 57.371 26.5608 55.1407 26.6614 52.7988C26.7619 51.4606 26.7619 50.1224 26.7619 48.8957L34.8034 53.8025L36.9142 55.1407L41.136 57.5941L41.2365 57.4826C39.9298 56.3674 38.7236 55.2522 37.5173 54.137C36.9142 53.5794 36.2106 53.0218 35.6075 52.5758L33.7982 50.903C31.6873 49.1187 29.6769 47.3344 27.566 45.6617C28.2697 44.8811 28.9733 44.1004 29.6769 43.2083L32.6925 39.1937C34.7028 36.5172 36.8137 33.8408 38.8241 31.0529H38.7236C36.2106 33.1717 33.7982 35.5136 31.3857 37.7439C30.1795 38.8591 28.9733 39.9743 27.7671 41.201L26.7619 42.2046C26.6614 38.8591 26.4603 35.5136 26.2593 32.0565L26.0583 28.711C25.9577 27.4843 25.9577 26.3691 25.8572 25.2539C25.7567 22.9121 25.5557 20.5702 25.3546 18.3398H25.2541C25.1536 20.5702 24.9526 22.9121 24.852 25.2539C24.7515 26.3691 24.651 27.4843 24.651 28.711L24.45 32.0565C24.2489 35.7366 24.0479 39.3052 23.9474 42.9853L22.138 41.7586L17.9163 39.1937C15.2023 37.5209 12.3878 35.8481 9.57324 34.2869C11.9857 36.5172 14.3981 38.7476 16.9111 40.9779C18.2178 41.9816 19.424 43.0968 20.6303 44.212C21.4344 44.8811 22.2386 45.5502 23.0427 46.1077C21.3339 48.2266 19.7256 50.4569 18.0168 52.6873L16.4085 54.6946L11.8852 60.7166L11.9857 60.8281L15.6043 57.4826L17.5142 55.8098L19.3235 54.0255L23.9474 49.6763C23.9474 50.68 23.9474 51.7952 24.0479 52.7988C24.1484 55.1407 24.2489 57.371 24.45 59.7129C24.651 64.2851 24.9526 68.8574 25.3546 73.5411Z" fill="#D04D2A"/>
</svg>
