<svg viewBox="0 0 34 62" fill="none" xmlns="http://www.w3.org/2000/svg"><path d="M.858 12.007c.847 3.494 3.592 5.237 7.005 4.41 1.95-.473 3.56-4.476 5.51-4.95 10.4-2.52 29.344 8.199 1.719 14.897l-3.088.748c-.893.217-1.002 1.19-.342 2.492l5.934 12.411 1.706-.413-.347-5.336 3.007-.729c12.35-2.994 12.487-10.942 11.706-15.226C30.684 3.744 19.432-2.217 6.513.915 1.72 2.078-.363 6.97.858 12.007zm22.46 49.353c4.307-1.044 6.461-4.577 5.358-9.127-1.083-4.469-4.616-6.623-8.923-5.58-4.387 1.065-6.46 4.578-5.377 9.047 1.103 4.55 4.555 6.724 8.943 5.66z" fill="#000"/></svg>
