<svg width="305" height="64" viewBox="0 0 305 64" fill="none" xmlns="http://www.w3.org/2000/svg">
<path d="M21.5454 63.9975H270.071C273.751 63.9975 276.998 61.5187 277.864 57.6879L289.771 10.3658C291.07 5.1829 287.39 0 281.978 0H8.12331C2.71117 0 -1.18557 5.40825 0.329828 10.5911L13.9684 58.1386C14.8344 61.5187 18.0817 63.9975 21.5454 63.9975Z" fill="#C8C0B0"/>
<path d="M33.834 37.1602C33.834 37.8802 33.7565 38.5137 33.6016 39.0605C33.4557 39.5983 33.2598 40.0632 33.0137 40.4551C32.7767 40.8379 32.5078 41.1569 32.207 41.4121C31.9062 41.6582 31.5964 41.8542 31.2773 42C30.9674 42.1458 30.6667 42.2461 30.375 42.3008C30.0924 42.3646 29.8464 42.3965 29.6367 42.3965C29.5273 42.3965 29.377 42.3874 29.1855 42.3691C28.9941 42.36 28.7754 42.3327 28.5293 42.2871C28.2832 42.2415 28.0098 42.1732 27.709 42.082C27.4173 42 27.1074 41.8815 26.7793 41.7266L26.9297 38.2812C27.4674 38.737 27.946 39.0423 28.3652 39.1973C28.7936 39.3522 29.1536 39.4297 29.4453 39.4297C30.0104 39.4297 30.4342 39.2246 30.7168 38.8145C31.0085 38.4043 31.1543 37.8711 31.1543 37.2148C31.1543 36.7773 31.0449 36.2897 30.8262 35.752C30.6165 35.2051 30.2383 34.6172 29.6914 33.9883C29.3177 33.5508 28.9303 33.0951 28.5293 32.6211C28.1283 32.1471 27.7637 31.6413 27.4355 31.1035C27.1074 30.5658 26.8385 29.987 26.6289 29.3672C26.4193 28.7474 26.3145 28.0775 26.3145 27.3574C26.3145 26.446 26.4375 25.6576 26.6836 24.9922C26.9388 24.3268 27.276 23.7754 27.6953 23.3379C28.1146 22.9004 28.5931 22.5768 29.1309 22.3672C29.6777 22.1484 30.2474 22.0391 30.8398 22.0391C31.3594 22.0391 31.888 22.112 32.4258 22.2578C32.9727 22.3945 33.5195 22.6087 34.0664 22.9004L33.8066 26.3457C33.5697 26.0449 33.319 25.8079 33.0547 25.6348C32.7995 25.4525 32.5488 25.3158 32.3027 25.2246C32.0658 25.1335 31.8424 25.0742 31.6328 25.0469C31.4323 25.0195 31.2637 25.0059 31.127 25.0059C30.8626 25.0059 30.6165 25.0742 30.3887 25.2109C30.1699 25.3385 29.9785 25.5163 29.8145 25.7441C29.6595 25.9629 29.5365 26.2272 29.4453 26.5371C29.3542 26.8379 29.3086 27.1569 29.3086 27.4941C29.3086 28.0137 29.418 28.4831 29.6367 28.9023C29.8646 29.3216 30.1471 29.7363 30.4844 30.1465C30.8216 30.5566 31.1816 30.9805 31.5645 31.418C31.9564 31.8464 32.321 32.334 32.6582 32.8809C32.9954 33.4186 33.2734 34.0384 33.4922 34.7402C33.7201 35.4329 33.834 36.2396 33.834 37.1602ZM41.1687 34.6855C40.8861 34.6673 40.599 34.6536 40.3073 34.6445C40.0157 34.6354 39.724 34.6309 39.4323 34.6309C39.2683 34.6309 39.0951 34.6354 38.9128 34.6445C38.7396 34.6536 38.5665 34.6582 38.3933 34.6582L38.3386 39.5391C39.086 39.5208 39.8106 39.4844 40.5124 39.4297C41.2234 39.375 41.9753 39.2884 42.7683 39.1699V42.0273C42.2579 42.0091 41.7611 41.9954 41.278 41.9863C40.8041 41.9772 40.3301 41.9727 39.8562 41.9727C39.1452 41.9727 38.4434 41.9818 37.7507 42C37.058 42.0273 36.3425 42.0638 35.6042 42.1094C35.6862 40.4141 35.7501 38.737 35.7956 37.0781C35.8503 35.4102 35.8777 33.7285 35.8777 32.0332C35.8777 30.4108 35.8549 28.8021 35.8093 27.207C35.7728 25.6029 35.7045 23.9896 35.6042 22.3672C36.6797 22.4492 37.7051 22.4902 38.6804 22.4902C39.3002 22.4902 39.9154 22.4766 40.5261 22.4492C41.1459 22.4128 41.8067 22.3672 42.5085 22.3125V25.457C41.9434 25.3568 41.3829 25.2793 40.8269 25.2246C40.28 25.1699 39.7331 25.1426 39.1862 25.1426H38.653C38.5619 26.2819 38.4981 27.4167 38.4616 28.5469C38.4343 29.6771 38.4115 30.8118 38.3933 31.9512C38.6303 31.9694 38.8672 31.9785 39.1042 31.9785C39.3503 31.9785 39.601 31.9785 39.8562 31.9785C40.0658 31.9785 40.28 31.9785 40.4987 31.9785C40.7175 31.9785 40.9408 31.9694 41.1687 31.9512V34.6855ZM49.8705 42.1094C49.825 41.4805 49.7794 40.847 49.7338 40.209C49.6974 39.571 49.6518 38.9284 49.5971 38.2812C49.1961 38.2539 48.8087 38.2266 48.435 38.1992C48.0613 38.1719 47.683 38.1582 47.3002 38.1582H47.1225C47.0769 38.8145 47.0359 39.4616 46.9995 40.0996C46.963 40.7376 46.9311 41.3711 46.9037 42L43.4858 41.9453C44.0509 38.6914 44.5613 35.4466 45.017 32.2109C45.4728 28.9753 45.8601 25.7122 46.1791 22.4219L50.2944 22.4902C50.6407 25.7441 51.0554 28.9798 51.5385 32.1973C52.0307 35.4056 52.6049 38.6367 53.2612 41.8906L49.8705 42.1094ZM48.2709 25.8672C48.0886 27.5443 47.9155 29.2168 47.7514 30.8848C47.5873 32.5527 47.437 34.2344 47.3002 35.9297C47.4916 35.9479 47.6876 35.957 47.8881 35.957C48.0886 35.957 48.2937 35.957 48.5034 35.957H49.392C49.2371 34.2617 49.0639 32.5801 48.8725 30.9121C48.6811 29.2441 48.4806 27.5625 48.2709 25.8672ZM62.4552 28.2188C62.4552 28.8294 62.396 29.4447 62.2775 30.0645C62.1681 30.6751 61.9858 31.2676 61.7306 31.8418C61.4754 32.4069 61.1473 32.9401 60.7463 33.4414C60.3452 33.9336 59.853 34.3711 59.2697 34.7539C59.7801 36.0573 60.3407 37.3105 60.9513 38.5137C61.5711 39.7077 62.2593 40.8607 63.0158 41.9727L59.5978 42.1641L57.2736 35.5605C57.3101 36.6725 57.3556 37.7754 57.4103 38.8691C57.465 39.9629 57.5334 41.043 57.6154 42.1094H54.2795C54.4253 40.0404 54.5301 37.9714 54.5939 35.9023C54.6668 33.8333 54.7033 31.7507 54.7033 29.6543C54.7033 28.4421 54.6942 27.2344 54.6759 26.0312C54.6577 24.819 54.6213 23.5977 54.5666 22.3672C55.0496 22.2214 55.5373 22.1257 56.0295 22.0801C56.5308 22.0345 56.9546 22.0117 57.3009 22.0117C57.547 22.0117 57.8433 22.0391 58.1896 22.0938C58.5451 22.1393 58.9142 22.2396 59.297 22.3945C59.6798 22.5495 60.0581 22.7682 60.4318 23.0508C60.8146 23.3333 61.1518 23.707 61.4435 24.1719C61.7443 24.6276 61.9858 25.1882 62.1681 25.8535C62.3595 26.5098 62.4552 27.2982 62.4552 28.2188ZM57.2463 33.3457C57.5653 33.2546 57.8433 33.1224 58.0802 32.9492C58.3263 32.7669 58.5405 32.5618 58.7228 32.334C58.9051 32.1061 59.0555 31.8646 59.174 31.6094C59.3016 31.3542 59.4064 31.099 59.4884 30.8438C59.6707 30.2513 59.7755 29.6042 59.8029 28.9023C59.8029 28.8841 59.7983 28.7747 59.7892 28.5742C59.7892 28.3646 59.7664 28.1048 59.7209 27.7949C59.6753 27.485 59.6069 27.1478 59.5158 26.7832C59.4338 26.4186 59.3107 26.0677 59.1466 25.7305C58.9826 25.3841 58.7729 25.0788 58.5177 24.8145C58.2625 24.5501 57.9526 24.3633 57.588 24.2539C57.4787 25.6849 57.3921 27.1113 57.3283 28.5332C57.2736 29.946 57.2463 31.3724 57.2463 32.8125V33.3457ZM71.8407 41.6582C71.4852 41.8223 71.1343 41.9453 70.788 42.0273C70.4416 42.1185 70.1317 42.1868 69.8583 42.2324C69.5393 42.278 69.2294 42.3053 68.9286 42.3145C68.6005 42.3145 68.245 42.2552 67.8622 42.1367C67.4885 42.0182 67.1102 41.8177 66.7274 41.5352C66.3446 41.2435 65.9755 40.8516 65.62 40.3594C65.2645 39.8581 64.9501 39.2337 64.6766 38.4863C64.4032 37.7298 64.1845 36.8275 64.0204 35.7793C63.8563 34.7311 63.7743 33.5098 63.7743 32.1152C63.7743 30.7207 63.87 29.5039 64.0614 28.4648C64.2619 27.4258 64.5171 26.5371 64.827 25.7988C65.146 25.0514 65.5015 24.4408 65.8934 23.9668C66.2945 23.4837 66.7001 23.1055 67.1102 22.832C67.5204 22.5495 67.9169 22.3581 68.2997 22.2578C68.6916 22.1484 69.0289 22.0938 69.3114 22.0938C69.5757 22.1029 69.8355 22.1302 70.0907 22.1758C70.3095 22.2214 70.5373 22.2897 70.7743 22.3809C71.0204 22.472 71.2346 22.5996 71.4169 22.7637L71.1434 25.5117C70.8882 25.3841 70.6467 25.293 70.4188 25.2383C70.2001 25.1745 69.9904 25.1426 69.7899 25.1426C69.4071 25.1426 69.0653 25.2474 68.7645 25.457C68.4729 25.6576 68.2177 25.9264 67.9989 26.2637C67.7893 26.6009 67.607 26.9837 67.452 27.4121C67.3062 27.8405 67.1877 28.278 67.0966 28.7246C66.8687 29.7728 66.7411 30.9668 66.7137 32.3066C66.7411 33.6374 66.8733 34.8223 67.1102 35.8613C67.2105 36.3079 67.3335 36.7454 67.4794 37.1738C67.6343 37.5931 67.8212 37.9714 68.0399 38.3086C68.2587 38.6367 68.5139 38.901 68.8055 39.1016C69.1063 39.3021 69.4527 39.4023 69.8446 39.4023C70.273 39.4023 70.7697 39.252 71.3348 38.9512L71.8407 41.6582ZM76.7555 22.3672C76.6643 24.1719 76.5869 25.9629 76.523 27.7402C76.4592 29.5085 76.4137 31.2858 76.3863 33.0723C76.6142 33.0905 76.8421 33.0996 77.0699 33.0996C77.3069 33.0996 77.5393 33.0996 77.7672 33.0996C78.0589 33.0996 78.3551 33.0951 78.6559 33.0859C78.9658 33.0768 79.2757 33.0632 79.5855 33.0449C79.6038 32.6439 79.6129 32.252 79.6129 31.8691C79.6129 31.4772 79.6129 31.0762 79.6129 30.666C79.6129 29.2806 79.5992 27.8997 79.5719 26.5234C79.5445 25.1471 79.499 23.7617 79.4352 22.3672H82.7984C82.6344 24.5638 82.5068 26.7467 82.4156 28.916C82.3336 31.0762 82.2926 33.2546 82.2926 35.4512C82.2926 36.5267 82.3063 37.5977 82.3336 38.6641C82.3609 39.7305 82.3974 40.806 82.443 41.8906H79.3258C79.3714 40.806 79.4124 39.7259 79.4488 38.6504C79.4853 37.5749 79.5217 36.4993 79.5582 35.4238C79.0387 35.3965 78.5191 35.3737 77.9996 35.3555C77.4892 35.3281 76.9788 35.3145 76.4684 35.3145H76.359V38.1309C76.359 38.7689 76.359 39.3978 76.359 40.0176C76.359 40.6374 76.3681 41.2617 76.3863 41.8906H73.2555C73.301 40.5781 73.3284 39.2839 73.3375 38.0078C73.3557 36.7227 73.3648 35.4329 73.3648 34.1387C73.3648 30.2194 73.2828 26.2956 73.1188 22.3672H76.7555Z" fill="black"/>
<line x1="90.5918" y1="48.6494" x2="302.592" y2="48.6494" stroke="black" stroke-width="3" stroke-linecap="round" stroke-dasharray="0.25 7"/>
<path d="M268 20L279.136 33.037L274.383 42L300.185 31.4074L268 20Z" fill="white"/>
<path d="M271 20L281.123 31.8519L276.802 40L300.259 30.3704L271 20Z" fill="black"/>
</svg>
