<svg width="369" height="309" viewBox="0 0 369 309" fill="none" xmlns="http://www.w3.org/2000/svg">
<path d="M367.401 98.125L367.414 98.0723L367.424 98.0192C370.212 83.8729 359.025 70.721 344.629 72.9123L344.615 72.9144L17.4874 124.469L17.4603 124.473L17.4333 124.478C5.38802 126.635 -2.48127 139.528 1.7834 151.177L43.2769 280.639L43.2905 280.681L43.3055 280.723C46.1411 288.636 53.9133 294.408 62.5042 294.408H304.752C314.106 294.408 321.919 287.83 324.036 278.548C324.037 278.543 324.038 278.539 324.039 278.534L367.401 98.125Z" fill="#D9D9D9"/>
<path d="M65.4273 288.139H301.858C309.719 288.139 316.371 282.697 318.185 274.836L360.512 101.293C362.931 89.199 353.256 78.3148 341.163 80.1288L21.8902 129.713C11.6106 131.527 4.95912 142.411 8.58722 152.086L49.1009 276.65C51.5196 283.302 58.1711 288.139 65.4273 288.139Z" fill="#6EA5A0"/>
<path d="M59.7169 267.093C64.063 267.093 71.6981 260.515 75.8093 254.525C73.6949 257.696 72.7552 259.106 72.4029 261.103C71.933 264.039 76.1617 267.093 79.803 267.093C84.9713 267.093 90.2571 259.341 96.7176 252.645C96.1303 251.471 95.4255 251.353 94.4858 252.293C90.3746 256.404 85.4412 260.868 82.3872 262.512C80.2728 263.687 79.803 262.865 80.1554 261.103C81.5649 252.645 99.6538 233.147 103.531 230.21C101.886 228.213 95.8953 225.981 93.0762 229.035L92.254 230.093C91.4318 227.626 85.7936 225.511 83.9142 225.511C75.5743 225.511 54.4311 249.709 52.6692 260.163C52.0819 263.687 56.7803 267.093 59.7169 267.093ZM60.7741 262.512C59.9518 262.512 60.0693 262.042 60.1868 261.572C61.1265 256.169 78.7458 235.261 83.0919 232.442C85.5586 230.68 90.3746 231.032 90.0222 232.794C79.803 245.245 64.2979 262.512 60.7741 262.512Z" fill="#2D2D2B"/>
<path d="M117.855 267.093C125.372 267.093 128.309 259.341 134.769 252.645C134.182 251.471 133.477 251.353 132.537 252.293C128.309 256.287 121.378 262.512 119.382 262.512C118.442 262.512 117.972 261.925 118.207 260.515C119.617 252.88 137.001 238.08 137.001 233.029C137.001 229.858 132.068 225.864 129.366 225.864C126.664 225.864 117.972 235.261 110.337 242.896C114.918 237.023 118.912 232.089 119.851 229.858C120.791 227.508 117.15 224.924 113.156 226.569C110.807 233.969 89.4285 256.404 89.4285 260.515C89.311 263.687 93.0698 266.506 96.3588 266.506C96.3588 261.455 124.432 230.093 129.483 230.093C130.071 230.093 130.306 230.327 130.071 231.032C129.718 233.616 109.162 251.118 109.162 258.753C109.162 261.69 114.213 267.093 117.855 267.093Z" fill="#2D2D2B"/>
<path d="M116.604 307.5C130.464 307.5 148.554 268.15 179.799 228.448C179.329 225.629 172.868 221.048 170.049 224.572C164.881 234.908 145.852 260.515 137.63 260.515C137.042 260.515 137.042 260.28 137.042 259.576C137.042 254.407 158.655 235.026 158.655 229.505C158.655 226.569 155.366 223.045 151.138 223.984C149.728 231.62 129.642 250.414 129.642 257.579C129.642 260.75 135.75 265.919 138.452 265.919C140.214 265.919 145.969 261.69 150.785 256.756C147.261 261.572 143.738 266.506 140.214 271.204C139.744 270.735 138.804 270.5 137.395 270.5C120.598 272.027 106.972 286.474 104.505 294.11C102.508 300.335 112.14 307.5 116.604 307.5ZM114.372 300.57C112.962 300.57 113.197 298.691 113.432 297.868C115.429 290.703 127.763 275.668 138.334 273.554C126.236 289.646 118.366 300.57 114.372 300.57Z" fill="#2D2D2B"/>
<path d="M178.795 266.858C184.55 266.858 197.824 252.175 197.824 250.531C197.824 249.474 196.531 248.652 195.944 249.121C188.192 256.874 181.261 260.163 178.56 260.163C176.915 260.163 176.328 259.341 176.328 257.696C176.328 253.468 189.484 239.842 198.059 229.388C200.995 229.035 202.287 228.8 204.519 229.153C205.694 228.213 206.751 225.864 205.928 225.511C204.989 225.159 203.462 225.042 201.582 225.042C205.576 219.873 207.221 217.876 207.221 215.527C207.221 213.883 204.636 210.476 200.173 211.064C199.116 215.527 197.119 218.816 193.125 224.337C191.246 223.984 189.249 223.397 187.134 222.575C184.433 223.867 182.201 227.626 184.433 229.975C184.903 230.562 186.43 230.68 188.309 230.562C181.026 239.607 167.871 248.887 167.636 254.055C167.401 260.515 175.153 266.858 178.795 266.858Z" fill="#2D2D2B"/>
<path d="M221.033 223.984C223.5 223.984 226.672 222.223 227.259 219.051C227.729 216.232 225.849 214.353 223.265 214.353C219.154 214.353 217.392 216.467 216.922 219.051C216.335 222.105 219.037 223.984 221.033 223.984ZM197.423 266.858C203.414 266.858 215.395 257.226 220.329 250.061L218.332 248.417C213.163 253.82 203.766 262.042 199.538 262.042C198.833 262.042 198.716 261.572 198.598 260.515C198.481 255.112 220.211 236.905 220.211 231.62C220.211 226.334 215.865 224.924 211.519 226.099C210.462 233.969 190.376 252.88 190.376 257.814C190.376 261.69 195.192 266.858 197.423 266.858Z" fill="#2D2D2B"/>
<path d="M258.153 267.093C263.322 267.093 268.608 259.341 272.719 252.645C272.131 251.471 271.309 251.236 270.487 252.293C266.141 257.579 259.328 262.512 257.331 262.512C256.391 262.512 255.922 261.925 256.157 260.515C257.566 252.88 274.951 237.728 274.951 233.029C274.951 230.093 270.017 225.864 267.315 225.864C265.084 225.864 258.388 232.442 252.163 238.902C254.277 235.966 255.922 233.499 256.157 231.854C256.391 229.858 252.398 225.864 249.696 225.864C247.464 225.864 240.182 232.442 233.486 239.02C236.775 234.908 239.477 231.62 240.182 229.858C241.121 227.508 237.48 224.924 233.486 226.569C227.496 237.375 209.759 253.35 209.759 259.341C209.759 263.687 212.343 267.211 216.689 266.506C223.619 251.823 246.994 230.093 249.696 230.093C250.283 230.093 250.518 230.327 250.283 231.032C249.931 233.616 228.318 252.88 228.318 260.045C228.318 263.217 232.547 266.506 236.305 265.566C243.118 250.883 264.731 230.093 267.433 230.093C268.02 230.093 268.255 230.327 268.02 231.032C267.668 233.616 246.994 251.353 246.994 257.579C246.994 262.865 253.337 267.093 258.153 267.093Z" fill="#2D2D2B"/>
<path d="M276.857 267.093C283.905 267.093 298.236 256.991 305.401 249.591C306.341 248.299 305.048 247.947 303.991 247.712C296.356 255.464 282.496 262.395 276.74 262.395C274.156 262.395 274.273 258.518 275.8 255.934C276.388 256.756 277.445 257.344 278.502 257.344C287.547 257.344 305.401 241.134 306.81 232.794C307.398 229.27 302.699 224.924 299.645 224.924C288.369 224.924 267.46 245.245 267.46 257.226C267.46 261.338 272.041 267.093 276.857 267.093ZM277.21 253.468C283.67 243.248 296.356 229.035 301.29 229.035C301.994 229.035 301.994 229.623 301.877 230.093C300.937 235.378 285.432 249.356 277.21 253.468Z" fill="#2D2D2B"/>
<path d="M90.7995 214.936H96.9333V173.459L127.018 169.954L141.039 41.7285L96.9333 38.2235V11.9357H90.7995V37.6393L47.2786 34.1342L61.5908 177.549L90.7995 174.044V214.936Z" fill="black"/>
<path d="M166.636 220.936H173.548V187.054L221.6 185.593L204.156 53.2781L173.548 44.5155V17.9357H166.636V42.4709L140.306 34.5846L120.888 189.098L166.636 187.346V220.936Z" fill="black"/>
<path d="M238.875 214.936H245.009V173.167L278.307 174.92L285.609 39.976L245.009 38.2235V11.9357H238.875V38.2235L201.488 36.763L216.969 171.415L238.875 172.875V214.936Z" fill="black"/>
<path d="M100.604 141.544H131.822V135.922L125.197 136.324L102.31 65.6548H75.7086L76.3109 73.1834L88.4571 71.6777L69.9868 134.015L61.6551 133.513V139.034H87.7544V133.513L78.3185 134.015L83.3376 115.545H101.005L106.626 136.223L100.604 135.922V141.544ZM85.0441 109.221L92.1712 83.322L99.1978 109.221H85.0441Z" fill="#E6A311"/>
<path d="M252.897 127.514H284.116V121.893L277.491 122.294L254.604 51.6255H228.003L228.605 59.1541L240.751 57.6484L222.281 119.986L213.949 119.484V125.005H240.049V119.484L230.613 119.986L235.632 101.515H253.299L258.92 122.194L252.897 121.893V127.514ZM237.338 95.1913L244.465 69.2927L251.492 95.1913H237.338Z" fill="#E6A311"/>
<path d="M131.032 154.835H164.761V148.913L154.321 149.716L155.626 107.756L167.17 142.288L178.011 142.087L190.458 106.953V148.612L180.922 147.909V153.832H214.651V147.909L204.412 148.612L208.527 90.5908L217.562 91.1931V85.2705H182.528V91.1931L190.358 90.5908L190.157 90.9923L172.791 124.821L156.228 88.7839V87.8805L163.456 88.4828V82.4598H129.125V88.4828L137.055 87.8805L140.569 149.716L131.032 148.913V154.835Z" fill="#E6A311"/>
<path d="M327.122 33.5641C327.379 30.8662 327.571 28.2325 327.7 25.5988C327.828 24.2499 327.893 22.9652 327.957 21.6162C328.021 20.8454 328.021 20.0745 328.021 19.3679L333.16 22.1943L334.509 22.9652L337.207 24.3784L337.271 24.3141C336.436 23.6718 335.665 23.0294 334.894 22.387C334.509 22.0659 334.059 21.7447 333.674 21.4877L332.518 20.5242C331.169 19.4964 329.884 18.4686 328.535 17.5051C328.985 17.0554 329.434 16.6058 329.884 16.0919L331.811 13.7794C333.096 12.2377 334.445 10.696 335.729 9.09014H335.665C334.059 10.3106 332.518 11.6596 330.976 12.9443C330.205 13.5867 329.434 14.229 328.663 14.9356L328.021 15.5138C327.957 13.5867 327.828 11.6596 327.7 9.66827L327.571 7.74118C327.507 7.03458 327.507 6.39222 327.443 5.74986C327.379 4.4009 327.25 3.05194 327.122 1.76721H327.057C326.993 3.05194 326.865 4.4009 326.801 5.74986C326.736 6.39222 326.672 7.03458 326.672 7.74118L326.544 9.66827C326.415 11.7881 326.287 13.8436 326.222 15.9634L325.066 15.2568L322.368 13.7794C320.634 12.8158 318.835 11.8523 317.037 10.953C318.578 12.2377 320.12 13.5224 321.726 14.8072C322.561 15.3853 323.332 16.0277 324.103 16.67C324.616 17.0554 325.13 17.4408 325.644 17.762C324.552 18.9825 323.524 20.2672 322.432 21.552L321.405 22.7082L318.514 26.177L318.578 26.2412L320.891 24.3141L322.111 23.3506L323.268 22.3228L326.222 19.8176C326.222 20.3957 326.222 21.0381 326.287 21.6162C326.351 22.9652 326.415 24.2499 326.544 25.5988C326.672 28.2325 326.865 30.8662 327.122 33.5641Z" fill="#D04D2A"/>
<path d="M37.1293 31.9426C37.3863 29.2446 37.579 26.611 37.7074 23.9773C37.8359 22.6283 37.9002 21.3436 37.9644 19.9946C38.0286 19.2238 38.0286 18.453 38.0286 17.7464L43.1675 20.5727L44.5165 21.3436L47.2144 22.7568L47.2786 22.6925C46.4436 22.0502 45.6727 21.4078 44.9019 20.7655C44.5165 20.4443 44.0668 20.1231 43.6814 19.8661L42.5252 18.9026C41.1762 17.8748 39.8915 16.847 38.5425 15.8835C38.9922 15.4338 39.4418 14.9842 39.8915 14.4703L41.8186 12.1578C43.1033 10.6161 44.4522 9.07447 45.737 7.46856H45.6727C44.0668 8.68905 42.5252 10.038 40.9835 11.3227C40.2127 11.9651 39.4418 12.6075 38.671 13.3141L38.0286 13.8922C37.9644 11.9651 37.8359 10.038 37.7074 8.04668L37.579 6.1196C37.5147 5.413 37.5147 4.77064 37.4505 4.12828C37.3863 2.77932 37.2578 1.43035 37.1293 0.14563H37.0651C37.0008 1.43035 36.8724 2.77932 36.8081 4.12828C36.7439 4.77064 36.6797 5.413 36.6797 6.1196L36.5512 8.04668C36.4227 10.1665 36.2942 12.222 36.23 14.3418L35.0738 13.6352L32.3758 12.1578C30.6415 11.1943 28.8428 10.2307 27.0442 9.33141C28.5859 10.6161 30.1276 11.9009 31.7335 13.1856C32.5685 13.7637 33.3394 14.4061 34.1102 15.0484C34.6241 15.4338 35.138 15.8193 35.6519 16.1404C34.5599 17.3609 33.5321 18.6457 32.4401 19.9304L31.4123 21.0866L28.5217 24.5554L28.5859 24.6196L30.8984 22.6925L32.1189 21.729L33.2751 20.7012L36.23 18.196C36.23 18.7741 36.23 19.4165 36.2942 19.9946C36.3585 21.3436 36.4227 22.6283 36.5512 23.9773C36.6797 26.611 36.8724 29.2446 37.1293 31.9426Z" fill="#D04D2A"/>
<path d="M306.857 68.6044C307.262 64.3476 307.566 60.1923 307.769 56.0369C307.972 53.9085 308.073 51.8815 308.174 49.7531C308.276 48.5369 308.276 47.3207 308.276 46.2058L316.384 50.6653L318.512 51.8815L322.769 54.1112L322.87 54.0099C321.553 52.9963 320.337 51.9828 319.12 50.9693C318.512 50.4626 317.803 49.9558 317.195 49.5504L315.37 48.0301C313.242 46.4085 311.215 44.7869 309.087 43.2666C309.796 42.5572 310.506 41.8477 311.215 41.0369L314.256 37.3883C316.283 34.9559 318.411 32.5235 320.438 29.9897H320.337C317.803 31.9153 315.37 34.0437 312.938 36.0707C311.722 37.0842 310.506 38.0978 309.289 39.2126L308.276 40.1248C308.174 37.0842 307.972 34.0437 307.769 30.9018L307.566 27.8613C307.465 26.7464 307.465 25.7329 307.364 24.7194C307.262 22.5911 307.06 20.4627 306.857 18.4357H306.756C306.654 20.4627 306.452 22.5911 306.35 24.7194C306.249 25.7329 306.147 26.7464 306.147 27.8613L305.945 30.9018C305.742 34.2464 305.539 37.4897 305.438 40.8342L303.614 39.7194L299.357 37.3883C296.62 35.868 293.783 34.3478 290.945 32.9289C293.377 34.9559 295.81 36.9829 298.343 39.0099C299.661 39.9221 300.877 40.9356 302.093 41.9491C302.904 42.5572 303.715 43.1653 304.526 43.6721C302.803 45.5977 301.181 47.6247 299.458 49.6518L297.837 51.4761L293.276 56.949L293.377 57.0504L297.026 54.0099L298.952 52.4896L300.776 50.868L305.438 46.9153C305.438 47.8274 305.438 48.841 305.539 49.7531C305.641 51.8815 305.742 53.9085 305.945 56.0369C306.147 60.1923 306.452 64.3476 306.857 68.6044Z" fill="#D04D2A"/>
<path d="M16.8645 66.9828C17.2699 62.7261 17.574 58.5707 17.7767 54.4153C17.9794 52.2869 18.0807 50.2599 18.1821 48.1315C18.2834 46.9153 18.2834 45.6991 18.2834 44.5842L26.3915 49.0437L28.5199 50.2599L32.7766 52.4896L32.878 52.3883C31.5604 51.3748 30.3442 50.3613 29.128 49.3477C28.5199 48.841 27.8104 48.3342 27.2023 47.9288L25.378 46.4086C23.2496 44.7869 21.2226 43.1653 19.0943 41.6451C19.8037 40.9356 20.5132 40.2262 21.2226 39.4153L24.2632 35.7667C26.2902 33.3343 28.4185 30.9019 30.4456 28.3681H30.3442C27.8104 30.2938 25.378 32.4221 22.9456 34.4492C21.7294 35.4627 20.5132 36.4762 19.297 37.591L18.2834 38.5032C18.1821 35.4627 17.9794 32.4221 17.7767 29.2803L17.574 26.2397C17.4726 25.1249 17.4726 24.1114 17.3713 23.0978C17.2699 20.9695 17.0672 18.8411 16.8645 16.8141H16.7632C16.6618 18.8411 16.4591 20.9695 16.3578 23.0978C16.2564 24.1114 16.1551 25.1249 16.1551 26.2397L15.9524 29.2803C15.7497 32.6248 15.547 35.8681 15.4456 39.2126L13.6213 38.0978L9.36462 35.7667C6.62811 34.2465 3.79028 32.7262 0.95246 31.3073C3.38488 33.3343 5.8173 35.3613 8.35112 37.3883C9.66862 38.3005 10.8848 39.314 12.101 40.3275C12.9118 40.9356 13.7227 41.5437 14.5335 42.0505C12.8105 43.9761 11.1889 46.0032 9.46592 48.0302L7.84432 49.8545L3.28353 55.3274L3.38488 55.4288L7.03352 52.3883L8.95922 50.868L10.7835 49.2464L15.4456 45.2937C15.4456 46.2059 15.4456 47.2194 15.547 48.1315C15.6483 50.2599 15.7497 52.2869 15.9524 54.4153C16.1551 58.5707 16.4591 62.7261 16.8645 66.9828Z" fill="#D04D2A"/>
<path d="M352.912 308.169C353.317 303.912 353.621 299.757 353.824 295.601C354.027 293.473 354.128 291.446 354.229 289.317C354.331 288.101 354.331 286.885 354.331 285.77L362.439 290.23L364.567 291.446L368.824 293.676L368.925 293.574C367.608 292.561 366.392 291.547 365.175 290.534C364.567 290.027 363.858 289.52 363.25 289.115L361.425 287.594C359.297 285.973 357.27 284.351 355.142 282.831C355.851 282.122 356.561 281.412 357.27 280.601L360.311 276.953C362.338 274.52 364.466 272.088 366.493 269.554H366.392C363.858 271.48 361.425 273.608 358.993 275.635C357.777 276.649 356.561 277.662 355.344 278.777L354.331 279.689C354.229 276.649 354.027 273.608 353.824 270.466L353.621 267.426C353.52 266.311 353.52 265.297 353.419 264.284C353.317 262.155 353.115 260.027 352.912 258H352.811C352.709 260.027 352.507 262.155 352.405 264.284C352.304 265.297 352.202 266.311 352.202 267.426L352 270.466C351.797 273.811 351.594 277.054 351.493 280.399L349.669 279.284L345.412 276.953C342.675 275.432 339.838 273.912 337 272.493C339.432 274.52 341.865 276.547 344.398 278.574C345.716 279.486 346.932 280.5 348.148 281.513C348.959 282.122 349.77 282.73 350.581 283.236C348.858 285.162 347.236 287.189 345.513 289.216L343.892 291.04L339.331 296.513L339.432 296.615L343.081 293.574L345.007 292.054L346.831 290.432L351.493 286.48C351.493 287.392 351.493 288.405 351.594 289.317C351.696 291.446 351.797 293.473 352 295.601C352.202 299.757 352.507 303.912 352.912 308.169Z" fill="#D04D2A"/>
</svg>
