<svg width="46" height="79" viewBox="0 0 46 79" fill="none" xmlns="http://www.w3.org/2000/svg">
<path d="M22.5387 78.8375C23.1129 72.1482 23.5436 65.6183 23.8307 59.0883C24.1178 55.7437 24.2614 52.5583 24.405 49.2137C24.5485 47.3025 24.5485 45.3913 24.5485 43.6393L36.0332 50.6471L39.0479 52.5583L45.0774 56.0622L45.2209 55.9029C43.3547 54.3103 41.632 52.7176 39.9093 51.1249C39.0479 50.3286 38.043 49.5322 37.1817 48.8952L34.5976 46.5061C31.5829 43.9579 28.7117 41.4096 25.697 39.0206C26.7019 37.9057 27.7068 36.7908 28.7117 35.5167L33.0185 29.7831C35.8896 25.9606 38.9044 22.1382 41.7755 18.1565H41.632C38.043 21.1826 34.5976 24.5272 31.1522 27.7126C29.4295 29.3052 27.7068 30.8979 25.9841 32.6499L24.5485 34.0833C24.405 29.3052 24.1178 24.5272 23.8307 19.5899L23.5436 14.8119C23.4 13.0599 23.4 11.4673 23.2565 9.8746C23.1129 6.52998 22.8258 3.18535 22.5387 0H22.3951C22.2516 3.18535 21.9645 6.52998 21.8209 9.8746C21.6773 11.4673 21.5338 13.0599 21.5338 14.8119L21.2467 19.5899C20.9595 24.8458 20.6724 29.9423 20.5289 35.1982L17.9448 33.4462L11.9154 29.7831C8.03928 27.394 4.01964 25.005 0 22.7753C3.44541 25.9606 6.89081 29.146 10.4798 32.3313C12.346 33.7647 14.0687 35.3574 15.7914 36.9501C16.9399 37.9057 18.0884 38.8613 19.2368 39.6576C16.7964 42.6837 14.4994 45.8691 12.0589 49.0544L9.76198 51.9212L3.30185 60.5217L3.44541 60.681L8.61351 55.9029L11.3411 53.5139L13.9252 50.9656L20.5289 44.7542C20.5289 46.1876 20.5289 47.7803 20.6724 49.2137C20.816 52.5583 20.9595 55.7437 21.2467 59.0883C21.5338 65.6183 21.9645 72.1482 22.5387 78.8375Z" fill="#6EA5A0"/>
</svg>
