<svg width="206" height="154" viewBox="0 0 206 154" fill="none" xmlns="http://www.w3.org/2000/svg">
<path d="M49.8842 147.527L63.7424 112.595C30.4681 100.258 -2.71632 80.5699 9.29834 60.9926C30.0068 27.5923 148.884 0.96478 180.288 20.8097C210.72 39.8357 134.478 120.841 117.994 124.715C112.582 125.987 95.5079 122.931 76.692 116.882L49.8842 147.527Z" fill="white"/>
<path d="M107.951 85.0069C107.881 86.4298 107.335 87.6041 106.314 88.5299C105.293 89.4556 104.07 89.8835 102.648 89.8136C101.225 89.7437 100.013 89.1962 99.0122 88.1712C98.0865 87.1498 97.6585 85.9276 97.7285 84.5047C97.7984 83.0818 98.344 81.9075 99.3654 80.9817C100.465 79.9848 101.727 79.5212 103.15 79.5911C104.573 79.661 105.745 80.2441 106.667 81.3404C107.593 82.3618 108.021 83.584 107.951 85.0069ZM121.525 51.6667C120.728 52.6035 119.823 53.4598 118.809 54.2358C117.87 55.0154 116.893 55.7932 115.879 56.5692C115.879 56.5692 115.84 56.6048 115.761 56.676C115.683 56.7472 115.644 56.7828 115.644 56.7828C114.165 57.8363 112.759 58.9683 111.423 60.1789C110.091 61.3146 109.008 62.7253 108.175 64.4109C107.92 64.999 107.666 65.5871 107.412 66.1752C107.237 66.6921 107.059 67.2464 106.88 67.8381C106.525 68.9468 106.246 70.0591 106.041 71.1751C105.91 72.2948 105.777 73.4893 105.639 74.7588L101.258 74.5435C101.563 71.4055 102.077 68.5781 102.801 66.0612C103.604 63.4732 104.665 60.9729 105.985 58.5604C106.564 57.4628 107.218 56.3689 107.948 55.2787C108.68 54.1135 109.488 52.9521 110.371 51.7943C110.535 51.5021 110.737 51.2118 110.977 50.9232C111.216 50.6347 111.418 50.3444 111.583 50.0522C112.312 48.9619 113.009 47.7575 113.674 46.4389C114.34 45.1203 114.855 43.7944 115.221 42.4611C115.397 41.9442 115.535 41.4255 115.635 40.9049C115.74 40.3095 115.805 39.7497 115.83 39.2254C115.882 38.177 115.78 37.196 115.525 36.2826C115.269 35.3692 114.86 34.5234 114.298 33.745C113.17 32.2633 111.946 31.1897 110.628 30.5244C109.313 29.7841 107.944 29.379 106.521 29.3091C103.971 29.2589 101.601 30.1184 99.4126 31.8877C97.2274 33.582 95.8402 35.8411 95.251 38.6648C95.7114 38.4622 96.1681 38.3345 96.6211 38.2817C97.0778 38.154 97.4934 38.0994 97.8678 38.1177C99.3656 38.1913 100.611 38.8156 101.604 39.9904C102.673 41.169 103.17 42.5071 103.096 44.0049C103.063 44.6789 102.88 45.3456 102.548 46.0049C102.294 46.593 101.852 47.1719 101.224 47.7415C100.674 48.24 100.056 48.585 99.3711 48.7766C98.6861 48.9682 97.9691 49.0455 97.2202 49.0087C96.0968 48.9536 95.0631 48.6025 94.1189 47.9555C93.1748 47.3086 92.5805 46.4161 92.3362 45.278C92.0808 44.3646 91.8984 43.4923 91.7891 42.6612C91.7584 41.7588 91.7614 40.9332 91.7982 40.1843C92.1012 35.5448 94.0469 31.8493 97.6353 29.0978C101.299 26.35 105.45 25.1276 110.09 25.4306C110.464 25.449 110.838 25.4674 111.213 25.4858C111.587 25.5042 111.96 25.5601 112.331 25.6533C112.705 25.6717 113.078 25.7276 113.449 25.8209C113.819 25.9142 114.19 26.0074 114.561 26.1007C118.486 27.1944 121.393 29.1389 123.283 31.9343C125.172 34.7297 126.036 37.775 125.874 41.0701C125.782 42.9424 125.355 44.7606 124.593 46.5249C123.906 48.2928 122.883 50.0068 121.525 51.6667Z" fill="black"/>
</svg>
